  0
SECTION
  2
HEADER
  9
$ACADVER
  1
AC1014
  9
$HANDSEED
  5
FFFF
  9
$MEASUREMENT
 70
     1
  0
ENDSEC
  0
SECTION
  2
TABLES
  0
TABLE
  2
VPORT
  5
8
330
0
100
AcDbSymbolTable
 70
     4
  0
VPORT
  5
2E
330
8
100
AcDbSymbolTableRecord
100
AcDbViewportTableRecord
  2
*ACTIVE
 70
     0
 10
0.0
 20
0.0
 11
1.0
 21
1.0
 12
210.0
 22
148.5
 13
0.0
 23
0.0
 14
10.0
 24
10.0
 15
10.0
 25
10.0
 16
0.0
 26
0.0
 36
1.0
 17
0.0
 27
0.0
 37
0.0
 40
341.0
 41
1.24
 42
50.0
 43
0.0
 44
0.0
 50
0.0
 51
0.0
 71
     0
 72
   100
 73
     1
 74
     3
 75
     0
 76
     0
 77
     0
 78
     0
  0
ENDTAB
  0
TABLE
  2
LTYPE
  5
5
330
0
100
AcDbSymbolTable
 70
     1
  0
LTYPE
  5
14
330
5
100
AcDbSymbolTableRecord
100
AcDbLinetypeTableRecord
  2
BYBLOCK
 70
     0
  3

 72
    65
 73
     0
 40
0.0
  0
LTYPE
  5
15
330
5
100
AcDbSymbolTableRecord
100
AcDbLinetypeTableRecord
  2
BYLAYER
 70
     0
  3

 72
    65
 73
     0
 40
0.0
  0
LTYPE
  5
16
330
5
100
AcDbSymbolTableRecord
100
AcDbLinetypeTableRecord
  2
CONTINUOUS
 70
     0
  3
Solid line
 72
    65
 73
     0
 40
0.0
  0
ENDTAB
  0
TABLE
  2
LAYER
  5
2
100
AcDbSymbolTable
 70
2
  0
LAYER
  5
50
100
AcDbSymbolTableRecord
100
AcDbLayerTableRecord
  2
0
 70
0
  6
CONTINUOUS
  0
LAYER
  5
51
100
AcDbSymbolTableRecord
100
AcDbLayerTableRecord
  2
Layer_1
 70
0
  6
CONTINUOUS
  0
ENDTAB
  0
TABLE
  2
STYLE
  5
3
330
0
100
AcDbSymbolTable
 70
     1
  0
STYLE
  5
11
330
3
100
AcDbSymbolTableRecord
100
AcDbTextStyleTableRecord
  2
STANDARD
 70
     0
 40
0.0
 41
1.0
 50
0.0
 71
     0
 42
2.5
  3
txt
  4

  0
ENDTAB
  0
TABLE
  2
VIEW
  5
6
330
0
100
AcDbSymbolTable
 70
     0
  0
ENDTAB
  0
TABLE
  2
UCS
  5
7
330
0
100
AcDbSymbolTable
 70
     0
  0
ENDTAB
  0
TABLE
  2
APPID
  5
9
330
0
100
AcDbSymbolTable
 70
     2
  0
APPID
  5
12
330
9
100
AcDbSymbolTableRecord
100
AcDbRegAppTableRecord
  2
ACAD
 70
     0
  0
ENDTAB
  0
TABLE
  2
DIMSTYLE
  5
A
330
0
100
AcDbSymbolTable
 70
     1
  0
DIMSTYLE
105
27
330
A
100
AcDbSymbolTableRecord
100
AcDbDimStyleTableRecord
  2
ISO-25
 70
     0
  3

  4

  5

  6

  7

 40
1.0
 41
2.5
 42
0.625
 43
3.75
 44
1.25
 45
0.0
 46
0.0
 47
0.0
 48
0.0
140
2.5
141
2.5
142
0.0
143
0.03937007874016
144
1.0
145
0.0
146
1.0
147
0.625
 71
     0
 72
     0
 73
     0
 74
     0
 75
     0
 76
     0
 77
     1
 78
     8
170
     0
171
     3
172
     1
173
     0
174
     0
175
     0
176
     0
177
     0
178
     0
270
     2
271
     2
272
     2
273
     2
274
     3
340
11
275
     0
280
     0
281
     0
282
     0
283
     0
284
     8
285
     0
286
     0
287
     3
288
     0
  0
ENDTAB
  0
TABLE
  2
BLOCK_RECORD
  5
1
330
0
100
AcDbSymbolTable
 70
     1
  0
BLOCK_RECORD
  5
1F
330
1
100
AcDbSymbolTableRecord
100
AcDbBlockTableRecord
  2
*MODEL_SPACE
  0
BLOCK_RECORD
  5
1B
330
1
100
AcDbSymbolTableRecord
100
AcDbBlockTableRecord
  2
*PAPER_SPACE
  0
ENDTAB
  0
ENDSEC
  0
SECTION
  2
BLOCKS
  0
BLOCK
  5
20
330
1F
100
AcDbEntity
  8
0
100
AcDbBlockBegin
  2
*MODEL_SPACE
 70
     0
 10
0.0
 20
0.0
 30
0.0
  3
*MODEL_SPACE
  1

  0
ENDBLK
  5
21
330
1F
100
AcDbEntity
  8
0
100
AcDbBlockEnd
  0
BLOCK
  5
1C
330
1B
100
AcDbEntity
 67
     1
  8
0
100
AcDbBlockBegin
  2
*PAPER_SPACE
  1

  0
ENDBLK
  5
1D
330
1B
100
AcDbEntity
 67
     1
  8
0
100
AcDbBlockEnd
  0
ENDSEC
  0
SECTION
  2
ENTITIES
  0
LWPOLYLINE
  5
100
100
AcDbEntity
  8
Layer_1
 62
7
100
AcDbPolyline
 90
121
 70
0
 10
10.195695
 20
24.552397
 30
0.0
 10
9.456905
 20
24.394737
 30
0.0
 10
8.853088
 20
23.972984
 30
0.0
 10
8.393611
 20
23.373507
 30
0.0
 10
8.087848
 20
22.682675
 30
0.0
 10
6.207379
 20
22.624038
 30
0.0
 10
4.319902
 20
22.626295
 30
0.0
 10
2.437855
 20
22.614894
 30
0.0
 10
0.573682
 20
22.515058
 30
0.0
 10
0.125987
 20
21.928295
 30
0.0
 10
0.026568
 20
21.194354
 30
0.0
 10
0.071588
 20
20.404191
 30
0.0
 10
0.057195
 20
19.648764
 30
0.0
 10
0.056631
 20
18.398443
 30
0.0
 10
0.050365
 20
17.147826
 30
0.0
 10
0.059820
 20
15.897514
 30
0.0
 10
0.106316
 20
14.648113
 30
0.0
 10
1.112159
 20
14.310869
 30
0.0
 10
1.947884
 20
13.640193
 30
0.0
 10
2.436091
 20
12.728237
 30
0.0
 10
2.399371
 20
11.667141
 30
0.0
 10
2.071071
 20
11.022294
 30
0.0
 10
1.552564
 20
10.526241
 30
0.0
 10
0.923885
 20
10.159662
 30
0.0
 10
0.265066
 20
9.903252
 30
0.0
 10
0.022544
 20
9.284827
 30
0.0
 10
0.016166
 20
8.600040
 30
0.0
 10
0.082273
 20
7.892184
 30
0.0
 10
0.057212
 20
7.204553
 30
0.0
 10
0.063929
 20
5.993309
 30
0.0
 10
0.037344
 20
4.773555
 30
0.0
 10
0.057240
 20
3.561024
 30
0.0
 10
0.203335
 20
2.371446
 30
0.0
 10
0.811626
 20
1.961047
 30
0.0
 10
1.544932
 20
1.891403
 30
0.0
 10
2.326217
 20
1.948415
 30
0.0
 10
3.078452
 20
1.917989
 30
0.0
 10
4.337699
 20
1.910990
 30
0.0
 10
5.604321
 20
1.924903
 30
0.0
 10
6.864785
 20
1.914207
 30
0.0
 10
8.105558
 20
1.833460
 30
0.0
 10
8.651102
 20
0.744497
 30
0.0
 10
9.681075
 20
0.112864
 30
0.0
 10
10.875792
 20
0.050488
 30
0.0
 10
11.915558
 20
0.669294
 30
0.0
 10
12.157964
 20
0.950647
 30
0.0
 10
12.320705
 20
1.302789
 30
0.0
 10
12.470480
 20
1.638764
 30
0.0
 10
12.674002
 20
1.871617
 30
0.0
 10
16.506735
 20
1.916352
 30
0.0
 10
20.347226
 20
1.901422
 30
0.0
 10
24.180955
 20
1.910538
 30
0.0
 10
27.993405
 20
2.027488
 30
0.0
 10
28.311416
 20
2.531537
 30
0.0
 10
28.523159
 20
3.112847
 30
0.0
 10
28.789732
 20
3.647573
 30
0.0
 10
29.272224
 20
4.011863
 30
0.0
 10
30.295280
 20
4.304621
 30
0.0
 10
31.328100
 20
4.067856
 30
0.0
 10
32.135555
 20
3.401812
 30
0.0
 10
32.482502
 20
2.406724
 30
0.0
 10
32.930372
 20
1.981864
 30
0.0
 10
33.554882
 20
1.896926
 30
0.0
 10
34.240716
 20
1.945898
 30
0.0
 10
34.872552
 20
1.922755
 30
0.0
 10
36.170277
 20
1.918494
 30
0.0
 10
37.471121
 20
1.917083
 30
0.0
 10
38.769146
 20
1.933677
 30
0.0
 10
40.058405
 20
1.983397
 30
0.0
 10
40.625082
 20
2.625362
 30
0.0
 10
40.764231
 20
3.462170
 30
0.0
 10
40.720306
 20
4.375391
 30
0.0
 10
40.737748
 20
5.246591
 30
0.0
 10
40.741840
 20
6.450689
 30
0.0
 10
40.739864
 20
7.660929
 30
0.0
 10
40.743364
 20
8.865651
 30
0.0
 10
40.764023
 20
10.053188
 30
0.0
 10
41.855771
 20
10.590426
 30
0.0
 10
42.494530
 20
11.623769
 30
0.0
 10
42.556873
 20
12.826527
 30
0.0
 10
41.919370
 20
13.872008
 30
0.0
 10
41.583980
 20
14.140980
 30
0.0
 10
41.159520
 20
14.307688
 30
0.0
 10
40.825609
 20
14.514523
 30
0.0
 10
40.761875
 20
14.903877
 30
0.0
 10
40.747538
 20
16.651276
 30
0.0
 10
40.751404
 20
18.401700
 30
0.0
 10
40.736785
 20
20.149462
 30
0.0
 10
40.667006
 20
21.888883
 30
0.0
 10
40.178778
 20
22.447474
 30
0.0
 10
39.467299
 20
22.625579
 30
0.0
 10
38.667811
 20
22.614177
 30
0.0
 10
37.915556
 20
22.604243
 30
0.0
 10
36.591895
 20
22.593772
 30
0.0
 10
35.251190
 20
22.639117
 30
0.0
 10
33.926312
 20
22.620490
 30
0.0
 10
32.650131
 20
22.418066
 30
0.0
 10
32.391638
 20
21.670033
 30
0.0
 10
31.994633
 20
20.984377
 30
0.0
 10
31.433691
 20
20.470967
 30
0.0
 10
30.683395
 20
20.239663
 30
0.0
 10
29.796717
 20
20.315553
 30
0.0
 10
29.030744
 20
20.731656
 30
0.0
 10
28.475937
 20
21.402267
 30
0.0
 10
28.222770
 20
22.241677
 30
0.0
 10
27.802546
 20
22.571756
 30
0.0
 10
27.254903
 20
22.617013
 30
0.0
 10
26.662030
 20
22.563509
 30
0.0
 10
26.106117
 20
22.597306
 30
0.0
 10
22.719411
 20
22.619488
 30
0.0
 10
19.332547
 20
22.623722
 30
0.0
 10
15.945798
 20
22.638284
 30
0.0
 10
12.559436
 20
22.691458
 30
0.0
 10
12.240017
 20
23.435350
 30
0.0
 10
11.706612
 20
24.051473
 30
0.0
 10
11.008716
 20
24.452815
 30
0.0
 10
10.195825
 20
24.552361
 30
0.0
 10
10.195822
 20
24.552361
 30
0.0
 10
10.195820
 20
24.552361
 30
0.0
 10
10.195817
 20
24.552361
 30
0.0
 10
10.195695
 20
24.552397
 30
0.0
  0
ENDSEC
  0
SECTION
  2
OBJECTS
  0
DICTIONARY
  5
C
330
0
100
AcDbDictionary
  3
ACAD_GROUP
350
D
  3
ACAD_MLINESTYLE
350
17
  0
DICTIONARY
  5
D
330
C
100
AcDbDictionary
  0
DICTIONARY
  5
1A
330
C
100
AcDbDictionary
  0
DICTIONARY
  5
17
330
C
100
AcDbDictionary
  3
STANDARD
350
18
  0
DICTIONARY
  5
19
330
C
100
AcDbDictionary
  0
ENDSEC
  0
EOF
