  0
SECTION
  2
HEADER
  9
$ACADVER
  1
AC1009
  9
$FILLMODE
 70
0
  9
$EXTMIN
 10
-74.8568
 20
-119.2972
 30
0.0000
  9
$EXTMAX
 10
57.0230
 20
18.9768
 30
0.0000
  0
ENDSEC
  0
SECTION
  2
TABLES
  0
TABLE
  2
LTYPE
 70
1
  0
LTYPE
  2
CONTINUOUS
 70
64
  3
Solid line
 72
65
 73
0
 40
0
  0
ENDTAB
  0
TABLE
  2
LAYER
 70
255
  0
LAYER
  2
20
 70
64
 62
214
  6
CONTINUOUS
  0
ENDTAB
  0
ENDSEC
  0
SECTION
  2
BLOCKS
  0
BLOCK
  8
0
  2
RECT
 70
64
 10
0.0000
 20
0.0000
 30
0.0000
  3
RECT
  0
SOLID
  8
0
 10
-0.5000
 20
-0.5000
 30
0.0000
 11
0.5000
 21
-0.5000
 31
0.0000
 12
-0.5000
 22
0.5000
 32
0.0000
 13
0.5000
 23
0.5000
 33
0.0000
  0
ENDBLK
  8
0
  0
BLOCK
  8
0
  2
PIE
 70
64
 10
0.0000
 20
0.0000
 30
0.0000
  3
PIE
  0
CIRCLE
  8
0
 10
0.0000
 20
0.0000
 30
0.0000
 40
0.5000
  0
ENDBLK
  8
0
  0
BLOCK
  8
0
  2
OCTAGONP
 70
64
 10
0.0000
 20
0.0000
 30
0.0000
  3
OCTAGONP
  0
POLYLINE
  8
0
 66
1
 10
0.0000
 20
0.0000
 30
0.0000
 40
0.0000
 41
0.0000
 70
1
  0
VERTEX
  8
0
 10
-0.5000
 20
-0.2071
 30
0.0000
  0
VERTEX
  8
0
 10
-0.5000
 20
0.2071
 30
0.0000
  0
VERTEX
  8
0
 10
-0.2071
 20
0.5000
 30
0.0000
  0
VERTEX
  8
0
 10
0.2071
 20
0.5000
 30
0.0000
  0
VERTEX
  8
0
 10
0.5000
 20
0.2071
 30
0.0000
  0
VERTEX
  8
0
 10
0.5000
 20
-0.2071
 30
0.0000
  0
VERTEX
  8
0
 10
0.2071
 20
-0.5000
 30
0.0000
  0
VERTEX
  8
0
 10
-0.2071
 20
-0.5000
 30
0.0000
  0
SEQEND
  8
0
  0
ENDBLK
  8
0
  0
BLOCK
  8
0
  2
SQUAREP
 70
64
 10
0.0000
 20
0.0000
 30
0.0000
  3
SQUAREP
  0
SOLID
  8
0
 10
-0.5000
 20
-0.5000
 30
0.0000
 11
0.5000
 21
-0.5000
 31
0.0000
 12
-0.5000
 22
0.5000
 32
0.0000
 13
0.5000
 23
0.5000
 33
0.0000
  0
ENDBLK
  8
0
  0
BLOCK
  8
0
  2
ROUNDP
 70
64
 10
0.0000
 20
0.0000
 30
0.0000
  3
ROUNDP
  0
CIRCLE
  8
0
 10
0.0000
 20
0.0000
 30
0.0000
 40
0.5000
  0
ENDBLK
  8
0
  0
BLOCK
  8
0
  2
ANNULUSP
 70
64
 10
0.0000
 20
0.0000
 30
0.0000
  3
ANNULUSP
  0
CIRCLE
  8
0
 10
0.0000
 20
0.0000
 30
0.0000
 40
0.5000
  0
ENDBLK
  8
0
  0
BLOCK
  8
0
  2
THERMALP
 70
64
 10
0.0000
 20
0.0000
 30
0.0000
  3
THERMALP
  0
LINE
  8
0
 10
-0.2379
 20
0.4500
 30
0.0000
 11
0.2379
 21
0.4500
 31
0.0000
  0
LINE
  8
0
 10
0.4500
 20
0.2379
 30
0.0000
 11
0.4500
 21
-0.2379
 31
0.0000
  0
LINE
  8
0
 10
0.2379
 20
-0.4500
 30
0.0000
 11
-0.2379
 21
-0.4500
 31
0.0000
  0
LINE
  8
0
 10
-0.4500
 20
-0.2379
 30
0.0000
 11
-0.4500
 21
0.2379
 31
0.0000
  0
ENDBLK
  8
0
  0
BLOCK
  8
0
  2
OCTAGONV
 70
64
 10
0.0000
 20
0.0000
 30
0.0000
  3
OCTAGONV
  0
POLYLINE
  8
0
 66
1
 10
0.0000
 20
0.0000
 30
0.0000
 40
0.0000
 41
0.0000
 70
1
  0
VERTEX
  8
0
 10
-0.5000
 20
-0.2071
 30
0.0000
  0
VERTEX
  8
0
 10
-0.5000
 20
0.2071
 30
0.0000
  0
VERTEX
  8
0
 10
-0.2071
 20
0.5000
 30
0.0000
  0
VERTEX
  8
0
 10
0.2071
 20
0.5000
 30
0.0000
  0
VERTEX
  8
0
 10
0.5000
 20
0.2071
 30
0.0000
  0
VERTEX
  8
0
 10
0.5000
 20
-0.2071
 30
0.0000
  0
VERTEX
  8
0
 10
0.2071
 20
-0.5000
 30
0.0000
  0
VERTEX
  8
0
 10
-0.2071
 20
-0.5000
 30
0.0000
  0
SEQEND
  8
0
  0
ENDBLK
  8
0
  0
BLOCK
  8
0
  2
SQUAREV
 70
64
 10
0.0000
 20
0.0000
 30
0.0000
  3
SQUAREV
  0
SOLID
  8
0
 10
-0.5000
 20
-0.5000
 30
0.0000
 11
0.5000
 21
-0.5000
 31
0.0000
 12
-0.5000
 22
0.5000
 32
0.0000
 13
0.5000
 23
0.5000
 33
0.0000
  0
ENDBLK
  8
0
  0
BLOCK
  8
0
  2
ROUNDV
 70
64
 10
0.0000
 20
0.0000
 30
0.0000
  3
ROUNDV
  0
CIRCLE
  8
0
 10
0.0000
 20
0.0000
 30
0.0000
 40
0.5000
  0
ENDBLK
  8
0
  0
BLOCK
  8
0
  2
ANNULUSV
 70
64
 10
0.0000
 20
0.0000
 30
0.0000
  3
ANNULUSV
  0
CIRCLE
  8
0
 10
0.0000
 20
0.0000
 30
0.0000
 40
0.5000
  0
ENDBLK
  8
0
  0
BLOCK
  8
0
  2
THERMALV
 70
64
 10
0.0000
 20
0.0000
 30
0.0000
  3
THERMALV
  0
LINE
  8
0
 10
-0.2379
 20
0.4500
 30
0.0000
 11
0.2379
 21
0.4500
 31
0.0000
  0
LINE
  8
0
 10
0.4500
 20
0.2379
 30
0.0000
 11
0.4500
 21
-0.2379
 31
0.0000
  0
LINE
  8
0
 10
0.2379
 20
-0.4500
 30
0.0000
 11
-0.2379
 21
-0.4500
 31
0.0000
  0
LINE
  8
0
 10
-0.4500
 20
-0.2379
 30
0.0000
 11
-0.4500
 21
0.2379
 31
0.0000
  0
ENDBLK
  8
0
  0
ENDSEC
  0
SECTION
  2
ENTITIES
  0
CIRCLE
  8
20
 10
-60.1345
 20
-83.1850
 30
0.0000
 40
0.2500
  0
CIRCLE
  8
20
 10
-60.1345
 20
-85.6615
 30
0.0000
 40
0.2500
  0
CIRCLE
  8
20
 10
-60.1345
 20
-84.8360
 30
0.0000
 40
0.2500
  0
CIRCLE
  8
20
 10
-60.1345
 20
-84.0105
 30
0.0000
 40
0.2500
  0
CIRCLE
  8
20
 10
-60.1345
 20
-70.4850
 30
0.0000
 40
0.2500
  0
CIRCLE
  8
20
 10
-60.1345
 20
-72.9615
 30
0.0000
 40
0.2500
  0
CIRCLE
  8
20
 10
-60.1345
 20
-72.1360
 30
0.0000
 40
0.2500
  0
CIRCLE
  8
20
 10
-60.1345
 20
-71.3105
 30
0.0000
 40
0.2500
  0
CIRCLE
  8
20
 10
-60.1345
 20
-57.1500
 30
0.0000
 40
0.2500
  0
CIRCLE
  8
20
 10
-60.1345
 20
-59.6265
 30
0.0000
 40
0.2500
  0
CIRCLE
  8
20
 10
-60.1345
 20
-58.8010
 30
0.0000
 40
0.2500
  0
CIRCLE
  8
20
 10
-60.1345
 20
-57.9755
 30
0.0000
 40
0.2500
  0
CIRCLE
  8
20
 10
-60.1345
 20
-44.4500
 30
0.0000
 40
0.2500
  0
CIRCLE
  8
20
 10
-60.1345
 20
-46.9265
 30
0.0000
 40
0.2500
  0
CIRCLE
  8
20
 10
-60.1345
 20
-46.1010
 30
0.0000
 40
0.2500
  0
CIRCLE
  8
20
 10
-60.1345
 20
-45.2755
 30
0.0000
 40
0.2500
  0
CIRCLE
  8
20
 10
-60.1345
 20
-31.1150
 30
0.0000
 40
0.2500
  0
CIRCLE
  8
20
 10
-60.1345
 20
-33.5915
 30
0.0000
 40
0.2500
  0
CIRCLE
  8
20
 10
-60.1345
 20
-32.7660
 30
0.0000
 40
0.2500
  0
CIRCLE
  8
20
 10
-60.1345
 20
-31.9405
 30
0.0000
 40
0.2500
  0
CIRCLE
  8
20
 10
-60.1345
 20
-18.4150
 30
0.0000
 40
0.2500
  0
CIRCLE
  8
20
 10
-60.1345
 20
-20.8915
 30
0.0000
 40
0.2500
  0
CIRCLE
  8
20
 10
-60.1345
 20
-20.0660
 30
0.0000
 40
0.2500
  0
CIRCLE
  8
20
 10
-60.1345
 20
-19.2405
 30
0.0000
 40
0.2500
  0
CIRCLE
  8
20
 10
-60.1345
 20
-4.4450
 30
0.0000
 40
0.2500
  0
CIRCLE
  8
20
 10
-60.1345
 20
-6.9215
 30
0.0000
 40
0.2500
  0
CIRCLE
  8
20
 10
-60.1345
 20
-6.0960
 30
0.0000
 40
0.2500
  0
CIRCLE
  8
20
 10
-60.1345
 20
-5.2705
 30
0.0000
 40
0.2500
  0
CIRCLE
  8
20
 10
-60.1345
 20
7.6200
 30
0.0000
 40
0.2500
  0
CIRCLE
  8
20
 10
-60.1345
 20
5.1435
 30
0.0000
 40
0.2500
  0
CIRCLE
  8
20
 10
-60.1345
 20
5.9690
 30
0.0000
 40
0.2500
  0
CIRCLE
  8
20
 10
-60.1345
 20
6.7945
 30
0.0000
 40
0.2500
  0
CIRCLE
  8
20
 10
20.1295
 20
5.0800
 30
0.0000
 40
0.2500
  0
CIRCLE
  8
20
 10
20.1295
 20
7.5565
 30
0.0000
 40
0.2500
  0
CIRCLE
  8
20
 10
20.1295
 20
6.7310
 30
0.0000
 40
0.2500
  0
CIRCLE
  8
20
 10
20.1295
 20
5.9055
 30
0.0000
 40
0.2500
  0
CIRCLE
  8
20
 10
20.1295
 20
-7.6200
 30
0.0000
 40
0.2500
  0
CIRCLE
  8
20
 10
20.1295
 20
-5.1435
 30
0.0000
 40
0.2500
  0
CIRCLE
  8
20
 10
20.1295
 20
-5.9690
 30
0.0000
 40
0.2500
  0
CIRCLE
  8
20
 10
20.1295
 20
-6.7945
 30
0.0000
 40
0.2500
  0
CIRCLE
  8
20
 10
20.1295
 20
-20.9550
 30
0.0000
 40
0.2500
  0
CIRCLE
  8
20
 10
20.1295
 20
-18.4785
 30
0.0000
 40
0.2500
  0
CIRCLE
  8
20
 10
20.1295
 20
-19.3040
 30
0.0000
 40
0.2500
  0
CIRCLE
  8
20
 10
20.1295
 20
-20.1295
 30
0.0000
 40
0.2500
  0
CIRCLE
  8
20
 10
20.1295
 20
-33.6550
 30
0.0000
 40
0.2500
  0
CIRCLE
  8
20
 10
20.1295
 20
-31.1785
 30
0.0000
 40
0.2500
  0
CIRCLE
  8
20
 10
20.1295
 20
-32.0040
 30
0.0000
 40
0.2500
  0
CIRCLE
  8
20
 10
20.1295
 20
-32.8295
 30
0.0000
 40
0.2500
  0
CIRCLE
  8
20
 10
20.1295
 20
-46.9900
 30
0.0000
 40
0.2500
  0
CIRCLE
  8
20
 10
20.1295
 20
-44.5135
 30
0.0000
 40
0.2500
  0
CIRCLE
  8
20
 10
20.1295
 20
-45.3390
 30
0.0000
 40
0.2500
  0
CIRCLE
  8
20
 10
20.1295
 20
-46.1645
 30
0.0000
 40
0.2500
  0
CIRCLE
  8
20
 10
20.1295
 20
-59.6900
 30
0.0000
 40
0.2500
  0
CIRCLE
  8
20
 10
20.1295
 20
-57.2135
 30
0.0000
 40
0.2500
  0
CIRCLE
  8
20
 10
20.1295
 20
-58.0390
 30
0.0000
 40
0.2500
  0
CIRCLE
  8
20
 10
20.1295
 20
-58.8645
 30
0.0000
 40
0.2500
  0
CIRCLE
  8
20
 10
20.1295
 20
-73.6600
 30
0.0000
 40
0.2500
  0
CIRCLE
  8
20
 10
20.1295
 20
-71.1835
 30
0.0000
 40
0.2500
  0
CIRCLE
  8
20
 10
20.1295
 20
-72.0090
 30
0.0000
 40
0.2500
  0
CIRCLE
  8
20
 10
20.1295
 20
-72.8345
 30
0.0000
 40
0.2500
  0
CIRCLE
  8
20
 10
20.1295
 20
-85.7250
 30
0.0000
 40
0.2500
  0
CIRCLE
  8
20
 10
20.1295
 20
-83.2485
 30
0.0000
 40
0.2500
  0
CIRCLE
  8
20
 10
20.1295
 20
-84.0740
 30
0.0000
 40
0.2500
  0
CIRCLE
  8
20
 10
20.1295
 20
-84.8995
 30
0.0000
 40
0.2500
  0
CIRCLE
  8
20
 10
-66.0400
 20
-113.6650
 30
0.0000
 40
0.9525
  0
CIRCLE
  8
20
 10
26.0350
 20
-113.6650
 30
0.0000
 40
0.9525
  0
CIRCLE
  8
20
 10
26.0350
 20
9.5250
 30
0.0000
 40
0.9525
  0
CIRCLE
  8
20
 10
-66.0400
 20
9.5250
 30
0.0000
 40
0.9525
  0
CIRCLE
  8
20
 10
-60.1345
 20
-109.2200
 30
0.0000
 40
0.2500
  0
CIRCLE
  8
20
 10
-60.1345
 20
-111.6965
 30
0.0000
 40
0.2500
  0
CIRCLE
  8
20
 10
-60.1345
 20
-110.8710
 30
0.0000
 40
0.2500
  0
CIRCLE
  8
20
 10
-60.1345
 20
-110.0455
 30
0.0000
 40
0.2500
  0
CIRCLE
  8
20
 10
-60.1345
 20
-96.5200
 30
0.0000
 40
0.2500
  0
CIRCLE
  8
20
 10
-60.1345
 20
-98.9965
 30
0.0000
 40
0.2500
  0
CIRCLE
  8
20
 10
-60.1345
 20
-98.1710
 30
0.0000
 40
0.2500
  0
CIRCLE
  8
20
 10
-60.1345
 20
-97.3455
 30
0.0000
 40
0.2500
  0
CIRCLE
  8
20
 10
20.1295
 20
-99.6950
 30
0.0000
 40
0.2500
  0
CIRCLE
  8
20
 10
20.1295
 20
-97.2185
 30
0.0000
 40
0.2500
  0
CIRCLE
  8
20
 10
20.1295
 20
-98.0440
 30
0.0000
 40
0.2500
  0
CIRCLE
  8
20
 10
20.1295
 20
-98.8695
 30
0.0000
 40
0.2500
  0
CIRCLE
  8
20
 10
20.1295
 20
-111.7600
 30
0.0000
 40
0.2500
  0
CIRCLE
  8
20
 10
20.1295
 20
-109.2835
 30
0.0000
 40
0.2500
  0
CIRCLE
  8
20
 10
20.1295
 20
-110.1090
 30
0.0000
 40
0.2500
  0
CIRCLE
  8
20
 10
20.1295
 20
-110.9345
 30
0.0000
 40
0.2500
  0
ARC
  8
20
 10
-19.2000
 20
9.2000
 30
0.0000
 40
0.8000
 50
90.0000
 51
180.0000
  0
ARC
  8
20
 10
-19.2000
 20
-9.2000
 30
0.0000
 40
0.8000
 50
180.0000
 51
270.0000
  0
ARC
  8
20
 10
19.2000
 20
-9.2000
 30
0.0000
 40
0.8000
 50
270.0000
 51
0.0000
  0
LINE
  8
20
 10
20.0000
 20
-9.2000
 30
0.0000
 11
20.0000
 21
-2.1000
 31
0.0000
  0
LINE
  8
20
 10
20.0000
 20
2.1000
 30
0.0000
 11
20.0000
 21
9.2000
 31
0.0000
  0
ARC
  8
20
 10
19.2000
 20
9.2000
 30
0.0000
 40
0.8000
 50
0.0000
 51
90.0000
  0
LINE
  8
20
 10
19.2000
 20
10.0000
 30
0.0000
 11
12.7000
 21
10.0000
 31
0.0000
  0
ARC
  8
20
 10
12.7000
 20
9.7000
 30
0.0000
 40
0.3000
 50
90.0000
 51
180.0000
  0
LINE
  8
20
 10
-19.2000
 20
-10.0000
 30
0.0000
 11
-12.1000
 21
-10.0000
 31
0.0000
  0
ARC
  8
20
 10
-12.1000
 20
-10.2000
 30
0.0000
 40
0.2000
 50
0.0000
 51
90.0000
  0
ARC
  8
20
 10
-7.9000
 20
-10.2000
 30
0.0000
 40
0.2000
 50
90.0000
 51
180.0000
  0
ARC
  8
20
 10
-10.0000
 20
-10.0000
 30
0.0000
 40
1.9105
 50
186.0090
 51
353.9910
  0
LINE
  8
20
 10
-19.2000
 20
10.0000
 30
0.0000
 11
-12.2000
 21
10.0000
 31
0.0000
  0
ARC
  8
20
 10
-12.2000
 20
10.3000
 30
0.0000
 40
0.3000
 50
270.0000
 51
0.0000
  0
LINE
  8
20
 10
-7.8000
 20
10.0000
 30
0.0000
 11
7.3000
 21
10.0000
 31
0.0000
  0
ARC
  8
20
 10
7.3000
 20
9.7000
 30
0.0000
 40
0.3000
 50
0.0000
 51
90.0000
  0
ARC
  8
20
 10
-7.8000
 20
10.3000
 30
0.0000
 40
0.3000
 50
180.0000
 51
270.0000
  0
ARC
  8
20
 10
-10.0000
 20
10.0000
 30
0.0000
 40
1.9235
 50
8.9726
 51
171.0274
  0
ARC
  8
20
 10
10.0000
 20
10.0000
 30
0.0000
 40
2.4187
 50
187.1250
 51
352.8750
  0
ARC
  8
20
 10
20.2000
 20
-2.1000
 30
0.0000
 40
0.2000
 50
90.0000
 51
180.0000
  0
ARC
  8
20
 10
20.2000
 20
2.1000
 30
0.0000
 40
0.2000
 50
180.0000
 51
270.0000
  0
ARC
  8
20
 10
20.0000
 20
0.0000
 30
0.0000
 40
1.9105
 50
276.0090
 51
83.9910
  0
ARC
  8
20
 10
7.3000
 20
-9.7000
 30
0.0000
 40
0.3000
 50
270.0000
 51
0.0000
  0
ARC
  8
20
 10
12.7000
 20
-9.7000
 30
0.0000
 40
0.3000
 50
180.0000
 51
270.0000
  0
ARC
  8
20
 10
10.0000
 20
-10.0000
 30
0.0000
 40
2.4187
 50
7.1250
 51
172.8750
  0
LINE
  8
20
 10
7.3000
 20
-10.0000
 30
0.0000
 11
-7.9000
 21
-10.0000
 31
0.0000
  0
LINE
  8
20
 10
12.7000
 20
-10.0000
 30
0.0000
 11
19.2000
 21
-10.0000
 31
0.0000
  0
ARC
  8
20
 10
-19.7000
 20
2.7000
 30
0.0000
 40
0.3000
 50
180.0000
 51
270.0000
  0
ARC
  8
20
 10
-19.7000
 20
-2.7000
 30
0.0000
 40
0.3000
 50
90.0000
 51
180.0000
  0
ARC
  8
20
 10
-20.0000
 20
0.0000
 30
0.0000
 40
2.4187
 50
277.1250
 51
82.8750
  0
LINE
  8
20
 10
-20.0000
 20
-2.7000
 30
0.0000
 11
-20.0000
 21
-9.2000
 31
0.0000
  0
LINE
  8
20
 10
-20.0000
 20
2.7000
 30
0.0000
 11
-20.0000
 21
9.2000
 31
0.0000
  0
CIRCLE
  8
20
 10
-10.0000
 20
-10.0000
 30
0.0000
 40
1.1000
  0
CIRCLE
  8
20
 10
-10.0000
 20
10.0000
 30
0.0000
 40
1.1000
  0
CIRCLE
  8
20
 10
20.0000
 20
0.0000
 30
0.0000
 40
1.1000
  0
ARC
  8
20
 10
-20.8050
 20
-9.2000
 30
0.0000
 40
0.8000
 50
270.0000
 51
0.0000
  0
ARC
  8
20
 10
-20.8050
 20
9.2000
 30
0.0000
 40
0.8000
 50
0.0000
 51
90.0000
  0
ARC
  8
20
 10
-59.2050
 20
9.2000
 30
0.0000
 40
0.8000
 50
90.0000
 51
180.0000
  0
LINE
  8
20
 10
-60.0050
 20
9.2000
 30
0.0000
 11
-60.0050
 21
2.1000
 31
0.0000
  0
LINE
  8
20
 10
-60.0050
 20
-2.1000
 30
0.0000
 11
-60.0050
 21
-9.2000
 31
0.0000
  0
ARC
  8
20
 10
-59.2050
 20
-9.2000
 30
0.0000
 40
0.8000
 50
180.0000
 51
270.0000
  0
LINE
  8
20
 10
-59.2050
 20
-10.0000
 30
0.0000
 11
-52.7050
 21
-10.0000
 31
0.0000
  0
ARC
  8
20
 10
-52.7050
 20
-9.7000
 30
0.0000
 40
0.3000
 50
270.0000
 51
0.0000
  0
LINE
  8
20
 10
-20.8050
 20
10.0000
 30
0.0000
 11
-27.9050
 21
10.0000
 31
0.0000
  0
ARC
  8
20
 10
-27.9050
 20
10.2000
 30
0.0000
 40
0.2000
 50
180.0000
 51
270.0000
  0
ARC
  8
20
 10
-32.1050
 20
10.2000
 30
0.0000
 40
0.2000
 50
270.0000
 51
0.0000
  0
ARC
  8
20
 10
-30.0050
 20
10.0000
 30
0.0000
 40
1.9105
 50
6.0090
 51
173.9910
  0
LINE
  8
20
 10
-20.8050
 20
-10.0000
 30
0.0000
 11
-27.8050
 21
-10.0000
 31
0.0000
  0
ARC
  8
20
 10
-27.8050
 20
-10.3000
 30
0.0000
 40
0.3000
 50
90.0000
 51
180.0000
  0
LINE
  8
20
 10
-32.2050
 20
-10.0000
 30
0.0000
 11
-47.3050
 21
-10.0000
 31
0.0000
  0
ARC
  8
20
 10
-47.3050
 20
-9.7000
 30
0.0000
 40
0.3000
 50
180.0000
 51
270.0000
  0
ARC
  8
20
 10
-32.2050
 20
-10.3000
 30
0.0000
 40
0.3000
 50
0.0000
 51
90.0000
  0
ARC
  8
20
 10
-30.0050
 20
-10.0000
 30
0.0000
 40
1.9235
 50
188.9726
 51
351.0274
  0
ARC
  8
20
 10
-50.0050
 20
-10.0000
 30
0.0000
 40
2.4187
 50
7.1250
 51
172.8750
  0
ARC
  8
20
 10
-60.2050
 20
2.1000
 30
0.0000
 40
0.2000
 50
270.0000
 51
0.0000
  0
ARC
  8
20
 10
-60.2050
 20
-2.1000
 30
0.0000
 40
0.2000
 50
0.0000
 51
90.0000
  0
ARC
  8
20
 10
-60.0050
 20
0.0000
 30
0.0000
 40
1.9105
 50
96.0090
 51
263.9910
  0
ARC
  8
20
 10
-47.3050
 20
9.7000
 30
0.0000
 40
0.3000
 50
90.0000
 51
180.0000
  0
ARC
  8
20
 10
-52.7050
 20
9.7000
 30
0.0000
 40
0.3000
 50
0.0000
 51
90.0000
  0
ARC
  8
20
 10
-50.0050
 20
10.0000
 30
0.0000
 40
2.4187
 50
187.1250
 51
352.8750
  0
LINE
  8
20
 10
-47.3050
 20
10.0000
 30
0.0000
 11
-32.1050
 21
10.0000
 31
0.0000
  0
LINE
  8
20
 10
-52.7050
 20
10.0000
 30
0.0000
 11
-59.2050
 21
10.0000
 31
0.0000
  0
ARC
  8
20
 10
-20.3050
 20
-2.7000
 30
0.0000
 40
0.3000
 50
0.0000
 51
90.0000
  0
ARC
  8
20
 10
-20.3050
 20
2.7000
 30
0.0000
 40
0.3000
 50
270.0000
 51
0.0000
  0
ARC
  8
20
 10
-20.0050
 20
0.0000
 30
0.0000
 40
2.4187
 50
97.1250
 51
262.8750
  0
LINE
  8
20
 10
-20.0050
 20
2.7000
 30
0.0000
 11
-20.0050
 21
9.2000
 31
0.0000
  0
LINE
  8
20
 10
-20.0050
 20
-2.7000
 30
0.0000
 11
-20.0050
 21
-9.2000
 31
0.0000
  0
CIRCLE
  8
20
 10
-30.0050
 20
10.0000
 30
0.0000
 40
1.1000
  0
CIRCLE
  8
20
 10
-30.0050
 20
-10.0000
 30
0.0000
 40
1.1000
  0
CIRCLE
  8
20
 10
-60.0050
 20
0.0000
 30
0.0000
 40
1.1000
  0
ARC
  8
20
 10
-20.8050
 20
-35.2350
 30
0.0000
 40
0.8000
 50
270.0000
 51
0.0000
  0
ARC
  8
20
 10
-20.8050
 20
-16.8350
 30
0.0000
 40
0.8000
 50
0.0000
 51
90.0000
  0
ARC
  8
20
 10
-59.2050
 20
-16.8350
 30
0.0000
 40
0.8000
 50
90.0000
 51
180.0000
  0
LINE
  8
20
 10
-60.0050
 20
-16.8350
 30
0.0000
 11
-60.0050
 21
-23.9350
 31
0.0000
  0
LINE
  8
20
 10
-60.0050
 20
-28.1350
 30
0.0000
 11
-60.0050
 21
-35.2350
 31
0.0000
  0
ARC
  8
20
 10
-59.2050
 20
-35.2350
 30
0.0000
 40
0.8000
 50
180.0000
 51
270.0000
  0
LINE
  8
20
 10
-59.2050
 20
-36.0350
 30
0.0000
 11
-52.7050
 21
-36.0350
 31
0.0000
  0
ARC
  8
20
 10
-52.7050
 20
-35.7350
 30
0.0000
 40
0.3000
 50
270.0000
 51
0.0000
  0
LINE
  8
20
 10
-20.8050
 20
-16.0350
 30
0.0000
 11
-27.9050
 21
-16.0350
 31
0.0000
  0
ARC
  8
20
 10
-27.9050
 20
-15.8350
 30
0.0000
 40
0.2000
 50
180.0000
 51
270.0000
  0
ARC
  8
20
 10
-32.1050
 20
-15.8350
 30
0.0000
 40
0.2000
 50
270.0000
 51
0.0000
  0
ARC
  8
20
 10
-30.0050
 20
-16.0350
 30
0.0000
 40
1.9105
 50
6.0090
 51
173.9910
  0
LINE
  8
20
 10
-20.8050
 20
-36.0350
 30
0.0000
 11
-27.8050
 21
-36.0350
 31
0.0000
  0
ARC
  8
20
 10
-27.8050
 20
-36.3350
 30
0.0000
 40
0.3000
 50
90.0000
 51
180.0000
  0
LINE
  8
20
 10
-32.2050
 20
-36.0350
 30
0.0000
 11
-47.3050
 21
-36.0350
 31
0.0000
  0
ARC
  8
20
 10
-47.3050
 20
-35.7350
 30
0.0000
 40
0.3000
 50
180.0000
 51
270.0000
  0
ARC
  8
20
 10
-32.2050
 20
-36.3350
 30
0.0000
 40
0.3000
 50
0.0000
 51
90.0000
  0
ARC
  8
20
 10
-30.0050
 20
-36.0350
 30
0.0000
 40
1.9235
 50
188.9726
 51
351.0274
  0
ARC
  8
20
 10
-50.0050
 20
-36.0350
 30
0.0000
 40
2.4187
 50
7.1250
 51
172.8750
  0
ARC
  8
20
 10
-60.2050
 20
-23.9350
 30
0.0000
 40
0.2000
 50
270.0000
 51
0.0000
  0
ARC
  8
20
 10
-60.2050
 20
-28.1350
 30
0.0000
 40
0.2000
 50
0.0000
 51
90.0000
  0
ARC
  8
20
 10
-60.0050
 20
-26.0350
 30
0.0000
 40
1.9105
 50
96.0090
 51
263.9910
  0
ARC
  8
20
 10
-47.3050
 20
-16.3350
 30
0.0000
 40
0.3000
 50
90.0000
 51
180.0000
  0
ARC
  8
20
 10
-52.7050
 20
-16.3350
 30
0.0000
 40
0.3000
 50
0.0000
 51
90.0000
  0
ARC
  8
20
 10
-50.0050
 20
-16.0350
 30
0.0000
 40
2.4187
 50
187.1250
 51
352.8750
  0
LINE
  8
20
 10
-47.3050
 20
-16.0350
 30
0.0000
 11
-32.1050
 21
-16.0350
 31
0.0000
  0
LINE
  8
20
 10
-52.7050
 20
-16.0350
 30
0.0000
 11
-59.2050
 21
-16.0350
 31
0.0000
  0
ARC
  8
20
 10
-20.3050
 20
-28.7350
 30
0.0000
 40
0.3000
 50
0.0000
 51
90.0000
  0
ARC
  8
20
 10
-20.3050
 20
-23.3350
 30
0.0000
 40
0.3000
 50
270.0000
 51
0.0000
  0
ARC
  8
20
 10
-20.0050
 20
-26.0350
 30
0.0000
 40
2.4187
 50
97.1250
 51
262.8750
  0
LINE
  8
20
 10
-20.0050
 20
-23.3350
 30
0.0000
 11
-20.0050
 21
-16.8350
 31
0.0000
  0
LINE
  8
20
 10
-20.0050
 20
-28.7350
 30
0.0000
 11
-20.0050
 21
-35.2350
 31
0.0000
  0
CIRCLE
  8
20
 10
-30.0050
 20
-16.0350
 30
0.0000
 40
1.1000
  0
CIRCLE
  8
20
 10
-30.0050
 20
-36.0350
 30
0.0000
 40
1.1000
  0
CIRCLE
  8
20
 10
-60.0050
 20
-26.0350
 30
0.0000
 40
1.1000
  0
ARC
  8
20
 10
-19.2000
 20
-16.8350
 30
0.0000
 40
0.8000
 50
90.0000
 51
180.0000
  0
ARC
  8
20
 10
-19.2000
 20
-35.2350
 30
0.0000
 40
0.8000
 50
180.0000
 51
270.0000
  0
ARC
  8
20
 10
19.2000
 20
-35.2350
 30
0.0000
 40
0.8000
 50
270.0000
 51
0.0000
  0
LINE
  8
20
 10
20.0000
 20
-35.2350
 30
0.0000
 11
20.0000
 21
-28.1350
 31
0.0000
  0
LINE
  8
20
 10
20.0000
 20
-23.9350
 30
0.0000
 11
20.0000
 21
-16.8350
 31
0.0000
  0
ARC
  8
20
 10
19.2000
 20
-16.8350
 30
0.0000
 40
0.8000
 50
0.0000
 51
90.0000
  0
LINE
  8
20
 10
19.2000
 20
-16.0350
 30
0.0000
 11
12.7000
 21
-16.0350
 31
0.0000
  0
ARC
  8
20
 10
12.7000
 20
-16.3350
 30
0.0000
 40
0.3000
 50
90.0000
 51
180.0000
  0
LINE
  8
20
 10
-19.2000
 20
-36.0350
 30
0.0000
 11
-12.1000
 21
-36.0350
 31
0.0000
  0
ARC
  8
20
 10
-12.1000
 20
-36.2350
 30
0.0000
 40
0.2000
 50
0.0000
 51
90.0000
  0
ARC
  8
20
 10
-7.9000
 20
-36.2350
 30
0.0000
 40
0.2000
 50
90.0000
 51
180.0000
  0
ARC
  8
20
 10
-10.0000
 20
-36.0350
 30
0.0000
 40
1.9105
 50
186.0090
 51
353.9910
  0
LINE
  8
20
 10
-19.2000
 20
-16.0350
 30
0.0000
 11
-12.2000
 21
-16.0350
 31
0.0000
  0
ARC
  8
20
 10
-12.2000
 20
-15.7350
 30
0.0000
 40
0.3000
 50
270.0000
 51
0.0000
  0
LINE
  8
20
 10
-7.8000
 20
-16.0350
 30
0.0000
 11
7.3000
 21
-16.0350
 31
0.0000
  0
ARC
  8
20
 10
7.3000
 20
-16.3350
 30
0.0000
 40
0.3000
 50
0.0000
 51
90.0000
  0
ARC
  8
20
 10
-7.8000
 20
-15.7350
 30
0.0000
 40
0.3000
 50
180.0000
 51
270.0000
  0
ARC
  8
20
 10
-10.0000
 20
-16.0350
 30
0.0000
 40
1.9235
 50
8.9726
 51
171.0274
  0
ARC
  8
20
 10
10.0000
 20
-16.0350
 30
0.0000
 40
2.4187
 50
187.1250
 51
352.8750
  0
ARC
  8
20
 10
20.2000
 20
-28.1350
 30
0.0000
 40
0.2000
 50
90.0000
 51
180.0000
  0
ARC
  8
20
 10
20.2000
 20
-23.9350
 30
0.0000
 40
0.2000
 50
180.0000
 51
270.0000
  0
ARC
  8
20
 10
20.0000
 20
-26.0350
 30
0.0000
 40
1.9105
 50
276.0090
 51
83.9910
  0
ARC
  8
20
 10
7.3000
 20
-35.7350
 30
0.0000
 40
0.3000
 50
270.0000
 51
0.0000
  0
ARC
  8
20
 10
12.7000
 20
-35.7350
 30
0.0000
 40
0.3000
 50
180.0000
 51
270.0000
  0
ARC
  8
20
 10
10.0000
 20
-36.0350
 30
0.0000
 40
2.4187
 50
7.1250
 51
172.8750
  0
LINE
  8
20
 10
7.3000
 20
-36.0350
 30
0.0000
 11
-7.9000
 21
-36.0350
 31
0.0000
  0
LINE
  8
20
 10
12.7000
 20
-36.0350
 30
0.0000
 11
19.2000
 21
-36.0350
 31
0.0000
  0
ARC
  8
20
 10
-19.7000
 20
-23.3350
 30
0.0000
 40
0.3000
 50
180.0000
 51
270.0000
  0
ARC
  8
20
 10
-19.7000
 20
-28.7350
 30
0.0000
 40
0.3000
 50
90.0000
 51
180.0000
  0
ARC
  8
20
 10
-20.0000
 20
-26.0350
 30
0.0000
 40
2.4187
 50
277.1250
 51
82.8750
  0
LINE
  8
20
 10
-20.0000
 20
-28.7350
 30
0.0000
 11
-20.0000
 21
-35.2350
 31
0.0000
  0
LINE
  8
20
 10
-20.0000
 20
-23.3350
 30
0.0000
 11
-20.0000
 21
-16.8350
 31
0.0000
  0
CIRCLE
  8
20
 10
-10.0000
 20
-36.0350
 30
0.0000
 40
1.1000
  0
CIRCLE
  8
20
 10
-10.0000
 20
-16.0350
 30
0.0000
 40
1.1000
  0
CIRCLE
  8
20
 10
20.0000
 20
-26.0350
 30
0.0000
 40
1.1000
  0
ARC
  8
20
 10
-20.8050
 20
-61.9050
 30
0.0000
 40
0.8000
 50
270.0000
 51
0.0000
  0
ARC
  8
20
 10
-20.8050
 20
-43.5050
 30
0.0000
 40
0.8000
 50
0.0000
 51
90.0000
  0
ARC
  8
20
 10
-59.2050
 20
-43.5050
 30
0.0000
 40
0.8000
 50
90.0000
 51
180.0000
  0
LINE
  8
20
 10
-60.0050
 20
-43.5050
 30
0.0000
 11
-60.0050
 21
-50.6050
 31
0.0000
  0
LINE
  8
20
 10
-60.0050
 20
-54.8050
 30
0.0000
 11
-60.0050
 21
-61.9050
 31
0.0000
  0
ARC
  8
20
 10
-59.2050
 20
-61.9050
 30
0.0000
 40
0.8000
 50
180.0000
 51
270.0000
  0
LINE
  8
20
 10
-59.2050
 20
-62.7050
 30
0.0000
 11
-52.7050
 21
-62.7050
 31
0.0000
  0
ARC
  8
20
 10
-52.7050
 20
-62.4050
 30
0.0000
 40
0.3000
 50
270.0000
 51
0.0000
  0
LINE
  8
20
 10
-20.8050
 20
-42.7050
 30
0.0000
 11
-27.9050
 21
-42.7050
 31
0.0000
  0
ARC
  8
20
 10
-27.9050
 20
-42.5050
 30
0.0000
 40
0.2000
 50
180.0000
 51
270.0000
  0
ARC
  8
20
 10
-32.1050
 20
-42.5050
 30
0.0000
 40
0.2000
 50
270.0000
 51
0.0000
  0
ARC
  8
20
 10
-30.0050
 20
-42.7050
 30
0.0000
 40
1.9105
 50
6.0090
 51
173.9910
  0
LINE
  8
20
 10
-20.8050
 20
-62.7050
 30
0.0000
 11
-27.8050
 21
-62.7050
 31
0.0000
  0
ARC
  8
20
 10
-27.8050
 20
-63.0050
 30
0.0000
 40
0.3000
 50
90.0000
 51
180.0000
  0
LINE
  8
20
 10
-32.2050
 20
-62.7050
 30
0.0000
 11
-47.3050
 21
-62.7050
 31
0.0000
  0
ARC
  8
20
 10
-47.3050
 20
-62.4050
 30
0.0000
 40
0.3000
 50
180.0000
 51
270.0000
  0
ARC
  8
20
 10
-32.2050
 20
-63.0050
 30
0.0000
 40
0.3000
 50
0.0000
 51
90.0000
  0
ARC
  8
20
 10
-30.0050
 20
-62.7050
 30
0.0000
 40
1.9235
 50
188.9726
 51
351.0274
  0
ARC
  8
20
 10
-50.0050
 20
-62.7050
 30
0.0000
 40
2.4187
 50
7.1250
 51
172.8750
  0
ARC
  8
20
 10
-60.2050
 20
-50.6050
 30
0.0000
 40
0.2000
 50
270.0000
 51
0.0000
  0
ARC
  8
20
 10
-60.2050
 20
-54.8050
 30
0.0000
 40
0.2000
 50
0.0000
 51
90.0000
  0
ARC
  8
20
 10
-60.0050
 20
-52.7050
 30
0.0000
 40
1.9105
 50
96.0090
 51
263.9910
  0
ARC
  8
20
 10
-47.3050
 20
-43.0050
 30
0.0000
 40
0.3000
 50
90.0000
 51
180.0000
  0
ARC
  8
20
 10
-52.7050
 20
-43.0050
 30
0.0000
 40
0.3000
 50
0.0000
 51
90.0000
  0
ARC
  8
20
 10
-50.0050
 20
-42.7050
 30
0.0000
 40
2.4187
 50
187.1250
 51
352.8750
  0
LINE
  8
20
 10
-47.3050
 20
-42.7050
 30
0.0000
 11
-32.1050
 21
-42.7050
 31
0.0000
  0
LINE
  8
20
 10
-52.7050
 20
-42.7050
 30
0.0000
 11
-59.2050
 21
-42.7050
 31
0.0000
  0
ARC
  8
20
 10
-20.3050
 20
-55.4050
 30
0.0000
 40
0.3000
 50
0.0000
 51
90.0000
  0
ARC
  8
20
 10
-20.3050
 20
-50.0050
 30
0.0000
 40
0.3000
 50
270.0000
 51
0.0000
  0
ARC
  8
20
 10
-20.0050
 20
-52.7050
 30
0.0000
 40
2.4187
 50
97.1250
 51
262.8750
  0
LINE
  8
20
 10
-20.0050
 20
-50.0050
 30
0.0000
 11
-20.0050
 21
-43.5050
 31
0.0000
  0
LINE
  8
20
 10
-20.0050
 20
-55.4050
 30
0.0000
 11
-20.0050
 21
-61.9050
 31
0.0000
  0
CIRCLE
  8
20
 10
-30.0050
 20
-42.7050
 30
0.0000
 40
1.1000
  0
CIRCLE
  8
20
 10
-30.0050
 20
-62.7050
 30
0.0000
 40
1.1000
  0
CIRCLE
  8
20
 10
-60.0050
 20
-52.7050
 30
0.0000
 40
1.1000
  0
ARC
  8
20
 10
-19.2000
 20
-43.5050
 30
0.0000
 40
0.8000
 50
90.0000
 51
180.0000
  0
ARC
  8
20
 10
-19.2000
 20
-61.9050
 30
0.0000
 40
0.8000
 50
180.0000
 51
270.0000
  0
ARC
  8
20
 10
19.2000
 20
-61.9050
 30
0.0000
 40
0.8000
 50
270.0000
 51
0.0000
  0
LINE
  8
20
 10
20.0000
 20
-61.9050
 30
0.0000
 11
20.0000
 21
-54.8050
 31
0.0000
  0
LINE
  8
20
 10
20.0000
 20
-50.6050
 30
0.0000
 11
20.0000
 21
-43.5050
 31
0.0000
  0
ARC
  8
20
 10
19.2000
 20
-43.5050
 30
0.0000
 40
0.8000
 50
0.0000
 51
90.0000
  0
LINE
  8
20
 10
19.2000
 20
-42.7050
 30
0.0000
 11
12.7000
 21
-42.7050
 31
0.0000
  0
ARC
  8
20
 10
12.7000
 20
-43.0050
 30
0.0000
 40
0.3000
 50
90.0000
 51
180.0000
  0
LINE
  8
20
 10
-19.2000
 20
-62.7050
 30
0.0000
 11
-12.1000
 21
-62.7050
 31
0.0000
  0
ARC
  8
20
 10
-12.1000
 20
-62.9050
 30
0.0000
 40
0.2000
 50
0.0000
 51
90.0000
  0
ARC
  8
20
 10
-7.9000
 20
-62.9050
 30
0.0000
 40
0.2000
 50
90.0000
 51
180.0000
  0
ARC
  8
20
 10
-10.0000
 20
-62.7050
 30
0.0000
 40
1.9105
 50
186.0090
 51
353.9910
  0
LINE
  8
20
 10
-19.2000
 20
-42.7050
 30
0.0000
 11
-12.2000
 21
-42.7050
 31
0.0000
  0
ARC
  8
20
 10
-12.2000
 20
-42.4050
 30
0.0000
 40
0.3000
 50
270.0000
 51
0.0000
  0
LINE
  8
20
 10
-7.8000
 20
-42.7050
 30
0.0000
 11
7.3000
 21
-42.7050
 31
0.0000
  0
ARC
  8
20
 10
7.3000
 20
-43.0050
 30
0.0000
 40
0.3000
 50
0.0000
 51
90.0000
  0
ARC
  8
20
 10
-7.8000
 20
-42.4050
 30
0.0000
 40
0.3000
 50
180.0000
 51
270.0000
  0
ARC
  8
20
 10
-10.0000
 20
-42.7050
 30
0.0000
 40
1.9235
 50
8.9726
 51
171.0274
  0
ARC
  8
20
 10
10.0000
 20
-42.7050
 30
0.0000
 40
2.4187
 50
187.1250
 51
352.8750
  0
ARC
  8
20
 10
20.2000
 20
-54.8050
 30
0.0000
 40
0.2000
 50
90.0000
 51
180.0000
  0
ARC
  8
20
 10
20.2000
 20
-50.6050
 30
0.0000
 40
0.2000
 50
180.0000
 51
270.0000
  0
ARC
  8
20
 10
20.0000
 20
-52.7050
 30
0.0000
 40
1.9105
 50
276.0090
 51
83.9910
  0
ARC
  8
20
 10
7.3000
 20
-62.4050
 30
0.0000
 40
0.3000
 50
270.0000
 51
0.0000
  0
ARC
  8
20
 10
12.7000
 20
-62.4050
 30
0.0000
 40
0.3000
 50
180.0000
 51
270.0000
  0
ARC
  8
20
 10
10.0000
 20
-62.7050
 30
0.0000
 40
2.4187
 50
7.1250
 51
172.8750
  0
LINE
  8
20
 10
7.3000
 20
-62.7050
 30
0.0000
 11
-7.9000
 21
-62.7050
 31
0.0000
  0
LINE
  8
20
 10
12.7000
 20
-62.7050
 30
0.0000
 11
19.2000
 21
-62.7050
 31
0.0000
  0
ARC
  8
20
 10
-19.7000
 20
-50.0050
 30
0.0000
 40
0.3000
 50
180.0000
 51
270.0000
  0
ARC
  8
20
 10
-19.7000
 20
-55.4050
 30
0.0000
 40
0.3000
 50
90.0000
 51
180.0000
  0
ARC
  8
20
 10
-20.0000
 20
-52.7050
 30
0.0000
 40
2.4187
 50
277.1250
 51
82.8750
  0
LINE
  8
20
 10
-20.0000
 20
-55.4050
 30
0.0000
 11
-20.0000
 21
-61.9050
 31
0.0000
  0
LINE
  8
20
 10
-20.0000
 20
-50.0050
 30
0.0000
 11
-20.0000
 21
-43.5050
 31
0.0000
  0
CIRCLE
  8
20
 10
-10.0000
 20
-62.7050
 30
0.0000
 40
1.1000
  0
CIRCLE
  8
20
 10
-10.0000
 20
-42.7050
 30
0.0000
 40
1.1000
  0
CIRCLE
  8
20
 10
20.0000
 20
-52.7050
 30
0.0000
 40
1.1000
  0
ARC
  8
20
 10
-20.8050
 20
-87.9400
 30
0.0000
 40
0.8000
 50
270.0000
 51
0.0000
  0
ARC
  8
20
 10
-20.8050
 20
-69.5400
 30
0.0000
 40
0.8000
 50
0.0000
 51
90.0000
  0
ARC
  8
20
 10
-59.2050
 20
-69.5400
 30
0.0000
 40
0.8000
 50
90.0000
 51
180.0000
  0
LINE
  8
20
 10
-60.0050
 20
-69.5400
 30
0.0000
 11
-60.0050
 21
-76.6400
 31
0.0000
  0
LINE
  8
20
 10
-60.0050
 20
-80.8400
 30
0.0000
 11
-60.0050
 21
-87.9400
 31
0.0000
  0
ARC
  8
20
 10
-59.2050
 20
-87.9400
 30
0.0000
 40
0.8000
 50
180.0000
 51
270.0000
  0
LINE
  8
20
 10
-59.2050
 20
-88.7400
 30
0.0000
 11
-52.7050
 21
-88.7400
 31
0.0000
  0
ARC
  8
20
 10
-52.7050
 20
-88.4400
 30
0.0000
 40
0.3000
 50
270.0000
 51
0.0000
  0
LINE
  8
20
 10
-20.8050
 20
-68.7400
 30
0.0000
 11
-27.9050
 21
-68.7400
 31
0.0000
  0
ARC
  8
20
 10
-27.9050
 20
-68.5400
 30
0.0000
 40
0.2000
 50
180.0000
 51
270.0000
  0
ARC
  8
20
 10
-32.1050
 20
-68.5400
 30
0.0000
 40
0.2000
 50
270.0000
 51
0.0000
  0
ARC
  8
20
 10
-30.0050
 20
-68.7400
 30
0.0000
 40
1.9105
 50
6.0090
 51
173.9910
  0
LINE
  8
20
 10
-20.8050
 20
-88.7400
 30
0.0000
 11
-27.8050
 21
-88.7400
 31
0.0000
  0
ARC
  8
20
 10
-27.8050
 20
-89.0400
 30
0.0000
 40
0.3000
 50
90.0000
 51
180.0000
  0
LINE
  8
20
 10
-32.2050
 20
-88.7400
 30
0.0000
 11
-47.3050
 21
-88.7400
 31
0.0000
  0
ARC
  8
20
 10
-47.3050
 20
-88.4400
 30
0.0000
 40
0.3000
 50
180.0000
 51
270.0000
  0
ARC
  8
20
 10
-32.2050
 20
-89.0400
 30
0.0000
 40
0.3000
 50
0.0000
 51
90.0000
  0
ARC
  8
20
 10
-30.0050
 20
-88.7400
 30
0.0000
 40
1.9235
 50
188.9726
 51
351.0274
  0
ARC
  8
20
 10
-50.0050
 20
-88.7400
 30
0.0000
 40
2.4187
 50
7.1250
 51
172.8750
  0
ARC
  8
20
 10
-60.2050
 20
-76.6400
 30
0.0000
 40
0.2000
 50
270.0000
 51
0.0000
  0
ARC
  8
20
 10
-60.2050
 20
-80.8400
 30
0.0000
 40
0.2000
 50
0.0000
 51
90.0000
  0
ARC
  8
20
 10
-60.0050
 20
-78.7400
 30
0.0000
 40
1.9105
 50
96.0090
 51
263.9910
  0
ARC
  8
20
 10
-47.3050
 20
-69.0400
 30
0.0000
 40
0.3000
 50
90.0000
 51
180.0000
  0
ARC
  8
20
 10
-52.7050
 20
-69.0400
 30
0.0000
 40
0.3000
 50
0.0000
 51
90.0000
  0
ARC
  8
20
 10
-50.0050
 20
-68.7400
 30
0.0000
 40
2.4187
 50
187.1250
 51
352.8750
  0
LINE
  8
20
 10
-47.3050
 20
-68.7400
 30
0.0000
 11
-32.1050
 21
-68.7400
 31
0.0000
  0
LINE
  8
20
 10
-52.7050
 20
-68.7400
 30
0.0000
 11
-59.2050
 21
-68.7400
 31
0.0000
  0
ARC
  8
20
 10
-20.3050
 20
-81.4400
 30
0.0000
 40
0.3000
 50
0.0000
 51
90.0000
  0
ARC
  8
20
 10
-20.3050
 20
-76.0400
 30
0.0000
 40
0.3000
 50
270.0000
 51
0.0000
  0
ARC
  8
20
 10
-20.0050
 20
-78.7400
 30
0.0000
 40
2.4187
 50
97.1250
 51
262.8750
  0
LINE
  8
20
 10
-20.0050
 20
-76.0400
 30
0.0000
 11
-20.0050
 21
-69.5400
 31
0.0000
  0
LINE
  8
20
 10
-20.0050
 20
-81.4400
 30
0.0000
 11
-20.0050
 21
-87.9400
 31
0.0000
  0
CIRCLE
  8
20
 10
-30.0050
 20
-68.7400
 30
0.0000
 40
1.1000
  0
CIRCLE
  8
20
 10
-30.0050
 20
-88.7400
 30
0.0000
 40
1.1000
  0
CIRCLE
  8
20
 10
-60.0050
 20
-78.7400
 30
0.0000
 40
1.1000
  0
ARC
  8
20
 10
-19.2000
 20
-69.5400
 30
0.0000
 40
0.8000
 50
90.0000
 51
180.0000
  0
ARC
  8
20
 10
-19.2000
 20
-87.9400
 30
0.0000
 40
0.8000
 50
180.0000
 51
270.0000
  0
ARC
  8
20
 10
19.2000
 20
-87.9400
 30
0.0000
 40
0.8000
 50
270.0000
 51
0.0000
  0
LINE
  8
20
 10
20.0000
 20
-87.9400
 30
0.0000
 11
20.0000
 21
-80.8400
 31
0.0000
  0
LINE
  8
20
 10
20.0000
 20
-76.6400
 30
0.0000
 11
20.0000
 21
-69.5400
 31
0.0000
  0
ARC
  8
20
 10
19.2000
 20
-69.5400
 30
0.0000
 40
0.8000
 50
0.0000
 51
90.0000
  0
LINE
  8
20
 10
19.2000
 20
-68.7400
 30
0.0000
 11
12.7000
 21
-68.7400
 31
0.0000
  0
ARC
  8
20
 10
12.7000
 20
-69.0400
 30
0.0000
 40
0.3000
 50
90.0000
 51
180.0000
  0
LINE
  8
20
 10
-19.2000
 20
-88.7400
 30
0.0000
 11
-12.1000
 21
-88.7400
 31
0.0000
  0
ARC
  8
20
 10
-12.1000
 20
-88.9400
 30
0.0000
 40
0.2000
 50
0.0000
 51
90.0000
  0
ARC
  8
20
 10
-7.9000
 20
-88.9400
 30
0.0000
 40
0.2000
 50
90.0000
 51
180.0000
  0
ARC
  8
20
 10
-10.0000
 20
-88.7400
 30
0.0000
 40
1.9105
 50
186.0090
 51
353.9910
  0
LINE
  8
20
 10
-19.2000
 20
-68.7400
 30
0.0000
 11
-12.2000
 21
-68.7400
 31
0.0000
  0
ARC
  8
20
 10
-12.2000
 20
-68.4400
 30
0.0000
 40
0.3000
 50
270.0000
 51
0.0000
  0
LINE
  8
20
 10
-7.8000
 20
-68.7400
 30
0.0000
 11
7.3000
 21
-68.7400
 31
0.0000
  0
ARC
  8
20
 10
7.3000
 20
-69.0400
 30
0.0000
 40
0.3000
 50
0.0000
 51
90.0000
  0
ARC
  8
20
 10
-7.8000
 20
-68.4400
 30
0.0000
 40
0.3000
 50
180.0000
 51
270.0000
  0
ARC
  8
20
 10
-10.0000
 20
-68.7400
 30
0.0000
 40
1.9235
 50
8.9726
 51
171.0274
  0
ARC
  8
20
 10
10.0000
 20
-68.7400
 30
0.0000
 40
2.4187
 50
187.1250
 51
352.8750
  0
ARC
  8
20
 10
20.2000
 20
-80.8400
 30
0.0000
 40
0.2000
 50
90.0000
 51
180.0000
  0
ARC
  8
20
 10
20.2000
 20
-76.6400
 30
0.0000
 40
0.2000
 50
180.0000
 51
270.0000
  0
ARC
  8
20
 10
20.0000
 20
-78.7400
 30
0.0000
 40
1.9105
 50
276.0090
 51
83.9910
  0
ARC
  8
20
 10
7.3000
 20
-88.4400
 30
0.0000
 40
0.3000
 50
270.0000
 51
0.0000
  0
ARC
  8
20
 10
12.7000
 20
-88.4400
 30
0.0000
 40
0.3000
 50
180.0000
 51
270.0000
  0
ARC
  8
20
 10
10.0000
 20
-88.7400
 30
0.0000
 40
2.4187
 50
7.1250
 51
172.8750
  0
LINE
  8
20
 10
7.3000
 20
-88.7400
 30
0.0000
 11
-7.9000
 21
-88.7400
 31
0.0000
  0
LINE
  8
20
 10
12.7000
 20
-88.7400
 30
0.0000
 11
19.2000
 21
-88.7400
 31
0.0000
  0
ARC
  8
20
 10
-19.7000
 20
-76.0400
 30
0.0000
 40
0.3000
 50
180.0000
 51
270.0000
  0
ARC
  8
20
 10
-19.7000
 20
-81.4400
 30
0.0000
 40
0.3000
 50
90.0000
 51
180.0000
  0
ARC
  8
20
 10
-20.0000
 20
-78.7400
 30
0.0000
 40
2.4187
 50
277.1250
 51
82.8750
  0
LINE
  8
20
 10
-20.0000
 20
-81.4400
 30
0.0000
 11
-20.0000
 21
-87.9400
 31
0.0000
  0
LINE
  8
20
 10
-20.0000
 20
-76.0400
 30
0.0000
 11
-20.0000
 21
-69.5400
 31
0.0000
  0
CIRCLE
  8
20
 10
-10.0000
 20
-88.7400
 30
0.0000
 40
1.1000
  0
CIRCLE
  8
20
 10
-10.0000
 20
-68.7400
 30
0.0000
 40
1.1000
  0
CIRCLE
  8
20
 10
20.0000
 20
-78.7400
 30
0.0000
 40
1.1000
  0
ARC
  8
20
 10
-20.8050
 20
-114.6100
 30
0.0000
 40
0.8000
 50
270.0000
 51
0.0000
  0
ARC
  8
20
 10
-20.8050
 20
-96.2100
 30
0.0000
 40
0.8000
 50
0.0000
 51
90.0000
  0
ARC
  8
20
 10
-59.2050
 20
-96.2100
 30
0.0000
 40
0.8000
 50
90.0000
 51
180.0000
  0
LINE
  8
20
 10
-60.0050
 20
-96.2100
 30
0.0000
 11
-60.0050
 21
-103.3100
 31
0.0000
  0
LINE
  8
20
 10
-60.0050
 20
-107.5100
 30
0.0000
 11
-60.0050
 21
-114.6100
 31
0.0000
  0
ARC
  8
20
 10
-59.2050
 20
-114.6100
 30
0.0000
 40
0.8000
 50
180.0000
 51
270.0000
  0
LINE
  8
20
 10
-59.2050
 20
-115.4100
 30
0.0000
 11
-52.7050
 21
-115.4100
 31
0.0000
  0
ARC
  8
20
 10
-52.7050
 20
-115.1100
 30
0.0000
 40
0.3000
 50
270.0000
 51
0.0000
  0
LINE
  8
20
 10
-20.8050
 20
-95.4100
 30
0.0000
 11
-27.9050
 21
-95.4100
 31
0.0000
  0
ARC
  8
20
 10
-27.9050
 20
-95.2100
 30
0.0000
 40
0.2000
 50
180.0000
 51
270.0000
  0
ARC
  8
20
 10
-32.1050
 20
-95.2100
 30
0.0000
 40
0.2000
 50
270.0000
 51
0.0000
  0
ARC
  8
20
 10
-30.0050
 20
-95.4100
 30
0.0000
 40
1.9105
 50
6.0090
 51
173.9910
  0
LINE
  8
20
 10
-20.8050
 20
-115.4100
 30
0.0000
 11
-27.8050
 21
-115.4100
 31
0.0000
  0
ARC
  8
20
 10
-27.8050
 20
-115.7100
 30
0.0000
 40
0.3000
 50
90.0000
 51
180.0000
  0
LINE
  8
20
 10
-32.2050
 20
-115.4100
 30
0.0000
 11
-47.3050
 21
-115.4100
 31
0.0000
  0
ARC
  8
20
 10
-47.3050
 20
-115.1100
 30
0.0000
 40
0.3000
 50
180.0000
 51
270.0000
  0
ARC
  8
20
 10
-32.2050
 20
-115.7100
 30
0.0000
 40
0.3000
 50
0.0000
 51
90.0000
  0
ARC
  8
20
 10
-30.0050
 20
-115.4100
 30
0.0000
 40
1.9235
 50
188.9726
 51
351.0274
  0
ARC
  8
20
 10
-50.0050
 20
-115.4100
 30
0.0000
 40
2.4187
 50
7.1250
 51
172.8750
  0
ARC
  8
20
 10
-60.2050
 20
-103.3100
 30
0.0000
 40
0.2000
 50
270.0000
 51
0.0000
  0
ARC
  8
20
 10
-60.2050
 20
-107.5100
 30
0.0000
 40
0.2000
 50
0.0000
 51
90.0000
  0
ARC
  8
20
 10
-60.0050
 20
-105.4100
 30
0.0000
 40
1.9105
 50
96.0090
 51
263.9910
  0
ARC
  8
20
 10
-47.3050
 20
-95.7100
 30
0.0000
 40
0.3000
 50
90.0000
 51
180.0000
  0
ARC
  8
20
 10
-52.7050
 20
-95.7100
 30
0.0000
 40
0.3000
 50
0.0000
 51
90.0000
  0
ARC
  8
20
 10
-50.0050
 20
-95.4100
 30
0.0000
 40
2.4187
 50
187.1250
 51
352.8750
  0
LINE
  8
20
 10
-47.3050
 20
-95.4100
 30
0.0000
 11
-32.1050
 21
-95.4100
 31
0.0000
  0
LINE
  8
20
 10
-52.7050
 20
-95.4100
 30
0.0000
 11
-59.2050
 21
-95.4100
 31
0.0000
  0
ARC
  8
20
 10
-20.3050
 20
-108.1100
 30
0.0000
 40
0.3000
 50
0.0000
 51
90.0000
  0
ARC
  8
20
 10
-20.3050
 20
-102.7100
 30
0.0000
 40
0.3000
 50
270.0000
 51
0.0000
  0
ARC
  8
20
 10
-20.0050
 20
-105.4100
 30
0.0000
 40
2.4187
 50
97.1250
 51
262.8750
  0
LINE
  8
20
 10
-20.0050
 20
-102.7100
 30
0.0000
 11
-20.0050
 21
-96.2100
 31
0.0000
  0
LINE
  8
20
 10
-20.0050
 20
-108.1100
 30
0.0000
 11
-20.0050
 21
-114.6100
 31
0.0000
  0
CIRCLE
  8
20
 10
-30.0050
 20
-95.4100
 30
0.0000
 40
1.1000
  0
CIRCLE
  8
20
 10
-30.0050
 20
-115.4100
 30
0.0000
 40
1.1000
  0
CIRCLE
  8
20
 10
-60.0050
 20
-105.4100
 30
0.0000
 40
1.1000
  0
ARC
  8
20
 10
-19.2000
 20
-96.2100
 30
0.0000
 40
0.8000
 50
90.0000
 51
180.0000
  0
ARC
  8
20
 10
-19.2000
 20
-114.6100
 30
0.0000
 40
0.8000
 50
180.0000
 51
270.0000
  0
ARC
  8
20
 10
19.2000
 20
-114.6100
 30
0.0000
 40
0.8000
 50
270.0000
 51
0.0000
  0
LINE
  8
20
 10
20.0000
 20
-114.6100
 30
0.0000
 11
20.0000
 21
-107.5100
 31
0.0000
  0
LINE
  8
20
 10
20.0000
 20
-103.3100
 30
0.0000
 11
20.0000
 21
-96.2100
 31
0.0000
  0
ARC
  8
20
 10
19.2000
 20
-96.2100
 30
0.0000
 40
0.8000
 50
0.0000
 51
90.0000
  0
LINE
  8
20
 10
19.2000
 20
-95.4100
 30
0.0000
 11
12.7000
 21
-95.4100
 31
0.0000
  0
ARC
  8
20
 10
12.7000
 20
-95.7100
 30
0.0000
 40
0.3000
 50
90.0000
 51
180.0000
  0
LINE
  8
20
 10
-19.2000
 20
-115.4100
 30
0.0000
 11
-12.1000
 21
-115.4100
 31
0.0000
  0
ARC
  8
20
 10
-12.1000
 20
-115.6100
 30
0.0000
 40
0.2000
 50
0.0000
 51
90.0000
  0
ARC
  8
20
 10
-7.9000
 20
-115.6100
 30
0.0000
 40
0.2000
 50
90.0000
 51
180.0000
  0
ARC
  8
20
 10
-10.0000
 20
-115.4100
 30
0.0000
 40
1.9105
 50
186.0090
 51
353.9910
  0
LINE
  8
20
 10
-19.2000
 20
-95.4100
 30
0.0000
 11
-12.2000
 21
-95.4100
 31
0.0000
  0
ARC
  8
20
 10
-12.2000
 20
-95.1100
 30
0.0000
 40
0.3000
 50
270.0000
 51
0.0000
  0
LINE
  8
20
 10
-7.8000
 20
-95.4100
 30
0.0000
 11
7.3000
 21
-95.4100
 31
0.0000
  0
ARC
  8
20
 10
7.3000
 20
-95.7100
 30
0.0000
 40
0.3000
 50
0.0000
 51
90.0000
  0
ARC
  8
20
 10
-7.8000
 20
-95.1100
 30
0.0000
 40
0.3000
 50
180.0000
 51
270.0000
  0
ARC
  8
20
 10
-10.0000
 20
-95.4100
 30
0.0000
 40
1.9235
 50
8.9726
 51
171.0274
  0
ARC
  8
20
 10
10.0000
 20
-95.4100
 30
0.0000
 40
2.4187
 50
187.1250
 51
352.8750
  0
ARC
  8
20
 10
20.2000
 20
-107.5100
 30
0.0000
 40
0.2000
 50
90.0000
 51
180.0000
  0
ARC
  8
20
 10
20.2000
 20
-103.3100
 30
0.0000
 40
0.2000
 50
180.0000
 51
270.0000
  0
ARC
  8
20
 10
20.0000
 20
-105.4100
 30
0.0000
 40
1.9105
 50
276.0090
 51
83.9910
  0
ARC
  8
20
 10
7.3000
 20
-115.1100
 30
0.0000
 40
0.3000
 50
270.0000
 51
0.0000
  0
ARC
  8
20
 10
12.7000
 20
-115.1100
 30
0.0000
 40
0.3000
 50
180.0000
 51
270.0000
  0
ARC
  8
20
 10
10.0000
 20
-115.4100
 30
0.0000
 40
2.4187
 50
7.1250
 51
172.8750
  0
LINE
  8
20
 10
7.3000
 20
-115.4100
 30
0.0000
 11
-7.9000
 21
-115.4100
 31
0.0000
  0
LINE
  8
20
 10
12.7000
 20
-115.4100
 30
0.0000
 11
19.2000
 21
-115.4100
 31
0.0000
  0
ARC
  8
20
 10
-19.7000
 20
-102.7100
 30
0.0000
 40
0.3000
 50
180.0000
 51
270.0000
  0
ARC
  8
20
 10
-19.7000
 20
-108.1100
 30
0.0000
 40
0.3000
 50
90.0000
 51
180.0000
  0
ARC
  8
20
 10
-20.0000
 20
-105.4100
 30
0.0000
 40
2.4187
 50
277.1250
 51
82.8750
  0
LINE
  8
20
 10
-20.0000
 20
-108.1100
 30
0.0000
 11
-20.0000
 21
-114.6100
 31
0.0000
  0
LINE
  8
20
 10
-20.0000
 20
-102.7100
 30
0.0000
 11
-20.0000
 21
-96.2100
 31
0.0000
  0
CIRCLE
  8
20
 10
-10.0000
 20
-115.4100
 30
0.0000
 40
1.1000
  0
CIRCLE
  8
20
 10
-10.0000
 20
-95.4100
 30
0.0000
 40
1.1000
  0
CIRCLE
  8
20
 10
20.0000
 20
-105.4100
 30
0.0000
 40
1.1000
  0
ENDSEC
  0
EOF
