  0
SECTION
  2
HEADER
  9
$ACADVER
  1
AC1014
  9
$HANDSEED
  5
FFFF
  9
$MEASUREMENT
 70
     1
  0
ENDSEC
  0
SECTION
  2
TABLES
  0
TABLE
  2
VPORT
  5
8
330
0
100
AcDbSymbolTable
 70
     4
  0
VPORT
  5
2E
330
8
100
AcDbSymbolTableRecord
100
AcDbViewportTableRecord
  2
*ACTIVE
 70
     0
 10
0.0
 20
0.0
 11
1.0
 21
1.0
 12
210.0
 22
148.5
 13
0.0
 23
0.0
 14
10.0
 24
10.0
 15
10.0
 25
10.0
 16
0.0
 26
0.0
 36
1.0
 17
0.0
 27
0.0
 37
0.0
 40
341.0
 41
1.24
 42
50.0
 43
0.0
 44
0.0
 50
0.0
 51
0.0
 71
     0
 72
   100
 73
     1
 74
     3
 75
     0
 76
     0
 77
     0
 78
     0
  0
ENDTAB
  0
TABLE
  2
LTYPE
  5
5
330
0
100
AcDbSymbolTable
 70
     1
  0
LTYPE
  5
14
330
5
100
AcDbSymbolTableRecord
100
AcDbLinetypeTableRecord
  2
BYBLOCK
 70
     0
  3

 72
    65
 73
     0
 40
0.0
  0
LTYPE
  5
15
330
5
100
AcDbSymbolTableRecord
100
AcDbLinetypeTableRecord
  2
BYLAYER
 70
     0
  3

 72
    65
 73
     0
 40
0.0
  0
LTYPE
  5
16
330
5
100
AcDbSymbolTableRecord
100
AcDbLinetypeTableRecord
  2
CONTINUOUS
 70
     0
  3
Solid line
 72
    65
 73
     0
 40
0.0
  0
ENDTAB
  0
TABLE
  2
LAYER
  5
2
100
AcDbSymbolTable
 70
2
  0
LAYER
  5
50
100
AcDbSymbolTableRecord
100
AcDbLayerTableRecord
  2
0
 70
0
  6
CONTINUOUS
  0
LAYER
  5
51
100
AcDbSymbolTableRecord
100
AcDbLayerTableRecord
  2
Layer_1
 70
0
  6
CONTINUOUS
  0
ENDTAB
  0
TABLE
  2
STYLE
  5
3
330
0
100
AcDbSymbolTable
 70
     1
  0
STYLE
  5
11
330
3
100
AcDbSymbolTableRecord
100
AcDbTextStyleTableRecord
  2
STANDARD
 70
     0
 40
0.0
 41
1.0
 50
0.0
 71
     0
 42
2.5
  3
txt
  4

  0
ENDTAB
  0
TABLE
  2
VIEW
  5
6
330
0
100
AcDbSymbolTable
 70
     0
  0
ENDTAB
  0
TABLE
  2
UCS
  5
7
330
0
100
AcDbSymbolTable
 70
     0
  0
ENDTAB
  0
TABLE
  2
APPID
  5
9
330
0
100
AcDbSymbolTable
 70
     2
  0
APPID
  5
12
330
9
100
AcDbSymbolTableRecord
100
AcDbRegAppTableRecord
  2
ACAD
 70
     0
  0
ENDTAB
  0
TABLE
  2
DIMSTYLE
  5
A
330
0
100
AcDbSymbolTable
 70
     1
  0
DIMSTYLE
105
27
330
A
100
AcDbSymbolTableRecord
100
AcDbDimStyleTableRecord
  2
ISO-25
 70
     0
  3

  4

  5

  6

  7

 40
1.0
 41
2.5
 42
0.625
 43
3.75
 44
1.25
 45
0.0
 46
0.0
 47
0.0
 48
0.0
140
2.5
141
2.5
142
0.0
143
0.03937007874016
144
1.0
145
0.0
146
1.0
147
0.625
 71
     0
 72
     0
 73
     0
 74
     0
 75
     0
 76
     0
 77
     1
 78
     8
170
     0
171
     3
172
     1
173
     0
174
     0
175
     0
176
     0
177
     0
178
     0
270
     2
271
     2
272
     2
273
     2
274
     3
340
11
275
     0
280
     0
281
     0
282
     0
283
     0
284
     8
285
     0
286
     0
287
     3
288
     0
  0
ENDTAB
  0
TABLE
  2
BLOCK_RECORD
  5
1
330
0
100
AcDbSymbolTable
 70
     1
  0
BLOCK_RECORD
  5
1F
330
1
100
AcDbSymbolTableRecord
100
AcDbBlockTableRecord
  2
*MODEL_SPACE
  0
BLOCK_RECORD
  5
1B
330
1
100
AcDbSymbolTableRecord
100
AcDbBlockTableRecord
  2
*PAPER_SPACE
  0
ENDTAB
  0
ENDSEC
  0
SECTION
  2
BLOCKS
  0
BLOCK
  5
20
330
1F
100
AcDbEntity
  8
0
100
AcDbBlockBegin
  2
*MODEL_SPACE
 70
     0
 10
0.0
 20
0.0
 30
0.0
  3
*MODEL_SPACE
  1

  0
ENDBLK
  5
21
330
1F
100
AcDbEntity
  8
0
100
AcDbBlockEnd
  0
BLOCK
  5
1C
330
1B
100
AcDbEntity
 67
     1
  8
0
100
AcDbBlockBegin
  2
*PAPER_SPACE
  1

  0
ENDBLK
  5
1D
330
1B
100
AcDbEntity
 67
     1
  8
0
100
AcDbBlockEnd
  0
ENDSEC
  0
SECTION
  2
ENTITIES
  0
LWPOLYLINE
  5
100
100
AcDbEntity
  8
Layer_1
 62
7
100
AcDbPolyline
 90
106
 70
0
 10
10.334430
 20
25.059403
 30
0.0
 10
9.602764
 20
24.866863
 30
0.0
 10
8.988956
 20
24.445765
 30
0.0
 10
8.505492
 20
23.864054
 30
0.0
 10
8.164847
 20
23.189681
 30
0.0
 10
6.279027
 20
23.134950
 30
0.0
 10
4.385987
 20
23.149117
 30
0.0
 10
2.499425
 20
23.119622
 30
0.0
 10
0.633041
 20
22.933917
 30
0.0
 10
0.112423
 20
22.048674
 30
0.0
 10
0.006466
 20
21.022658
 30
0.0
 10
0.066074
 20
19.942446
 30
0.0
 10
0.042141
 20
18.894612
 30
0.0
 10
0.040448
 20
17.833885
 30
0.0
 10
0.047983
 20
16.773232
 30
0.0
 10
0.020043
 20
8.050133
 30
0.0
 10
0.083064
 20
6.980731
 30
0.0
 10
0.046476
 20
5.921246
 30
0.0
 10
0.039985
 20
5.005274
 30
0.0
 10
0.024237
 20
4.064825
 30
0.0
 10
0.106753
 20
3.148585
 30
0.0
 10
0.395049
 20
2.305237
 30
0.0
 10
1.256129
 20
1.904061
 30
0.0
 10
2.217787
 20
1.842782
 30
0.0
 10
3.218358
 20
1.903042
 30
0.0
 10
4.196179
 20
1.866472
 30
0.0
 10
5.205363
 20
1.861392
 30
0.0
 10
6.232675
 20
1.877789
 30
0.0
 10
7.244963
 20
1.857102
 30
0.0
 10
8.209077
 20
1.740795
 30
0.0
 10
8.855865
 20
0.706245
 30
0.0
 10
9.914850
 20
0.111941
 30
0.0
 10
11.119750
 20
0.038820
 30
0.0
 10
12.204285
 20
0.567809
 30
0.0
 10
12.564855
 20
0.898193
 30
0.0
 10
12.807727
 20
1.387032
 30
0.0
 10
13.092836
 20
1.781557
 30
0.0
 10
13.580118
 20
1.828990
 30
0.0
 10
17.288973
 20
1.854418
 30
0.0
 10
20.998140
 20
1.855547
 30
0.0
 10
24.706874
 20
1.880947
 30
0.0
 10
28.414424
 20
1.978816
 30
0.0
 10
28.796211
 20
2.636983
 30
0.0
 10
29.133676
 20
3.353218
 30
0.0
 10
29.587766
 20
3.929062
 30
0.0
 10
30.319424
 20
4.166038
 30
0.0
 10
31.128868
 20
4.148851
 30
0.0
 10
31.811764
 20
3.767930
 30
0.0
 10
32.315139
 20
3.138475
 30
0.0
 10
32.586021
 20
2.375691
 30
0.0
 10
33.333758
 20
1.926740
 30
0.0
 10
34.198662
 20
1.841856
 30
0.0
 10
35.108323
 20
1.898213
 30
0.0
 10
35.990327
 20
1.872982
 30
0.0
 10
37.125899
 20
1.872136
 30
0.0
 10
38.266776
 20
1.862935
 30
0.0
 10
39.402729
 20
1.894022
 30
0.0
 10
40.523521
 20
2.014068
 30
0.0
 10
41.157804
 20
2.884679
 30
0.0
 10
41.319221
 20
3.948131
 30
0.0
 10
41.274611
 20
5.087454
 30
0.0
 10
41.290810
 20
6.185665
 30
0.0
 10
41.297386
 20
7.175300
 30
0.0
 10
41.285222
 20
8.181925
 30
0.0
 10
41.297894
 20
9.173789
 30
0.0
 10
41.379021
 20
10.119138
 30
0.0
 10
42.399653
 20
10.754840
 30
0.0
 10
42.991998
 20
11.791025
 30
0.0
 10
43.079918
 20
12.976841
 30
0.0
 10
42.587285
 20
14.061429
 30
0.0
 10
42.259710
 20
14.428160
 30
0.0
 10
41.783141
 20
14.680724
 30
0.0
 10
41.391149
 20
14.969804
 30
0.0
 10
41.317285
 20
15.446082
 30
0.0
 10
41.298546
 20
17.158403
 30
0.0
 10
41.307774
 20
18.873259
 30
0.0
 10
41.284294
 20
20.585498
 30
0.0
 10
41.167375
 20
22.289971
 30
0.0
 10
40.374446
 20
22.971543
 30
0.0
 10
39.359281
 20
23.157790
 30
0.0
 10
38.255976
 20
23.115177
 30
0.0
 10
37.198625
 20
23.110182
 30
0.0
 10
36.045377
 20
23.127087
 30
0.0
 10
34.861997
 20
23.162989
 30
0.0
 10
33.709226
 20
23.077676
 30
0.0
 10
32.647791
 20
22.730940
 30
0.0
 10
32.344823
 20
21.834495
 30
0.0
 10
31.716526
 20
21.121983
 30
0.0
 10
30.883583
 20
20.759748
 30
0.0
 10
29.966680
 20
20.914135
 30
0.0
 10
29.450705
 20
21.227703
 30
0.0
 10
29.092734
 20
21.698842
 30
0.0
 10
28.829982
 20
22.242854
 30
0.0
 10
28.599666
 20
22.775038
 30
0.0
 10
27.857309
 20
23.094338
 30
0.0
 10
27.045389
 20
23.131081
 30
0.0
 10
26.208045
 20
23.074743
 30
0.0
 10
25.389414
 20
23.114802
 30
0.0
 10
22.293233
 20
23.137323
 30
0.0
 10
19.190428
 20
23.137360
 30
0.0
 10
16.093688
 20
23.155846
 30
0.0
 10
13.015708
 20
23.233668
 30
0.0
 10
12.617800
 20
24.003672
 30
0.0
 10
11.991871
 20
24.603101
 30
0.0
 10
11.207581
 20
24.974220
 30
0.0
 10
10.334430
 20
25.059403
 30
0.0
  0
ENDSEC
  0
SECTION
  2
OBJECTS
  0
DICTIONARY
  5
C
330
0
100
AcDbDictionary
  3
ACAD_GROUP
350
D
  3
ACAD_MLINESTYLE
350
17
  0
DICTIONARY
  5
D
330
C
100
AcDbDictionary
  0
DICTIONARY
  5
1A
330
C
100
AcDbDictionary
  0
DICTIONARY
  5
17
330
C
100
AcDbDictionary
  3
STANDARD
350
18
  0
DICTIONARY
  5
19
330
C
100
AcDbDictionary
  0
ENDSEC
  0
EOF
