<?xml version="1.0" encoding="UTF-8" standalone="no"?>
<!-- Created with Inkscape (http://www.inkscape.org/) -->

<svg
   xmlns:dc="http://purl.org/dc/elements/1.1/"
   xmlns:cc="http://creativecommons.org/ns#"
   xmlns:rdf="http://www.w3.org/1999/02/22-rdf-syntax-ns#"
   xmlns:svg="http://www.w3.org/2000/svg"
   xmlns="http://www.w3.org/2000/svg"
   xmlns:sodipodi="http://sodipodi.sourceforge.net/DTD/sodipodi-0.dtd"
   xmlns:inkscape="http://www.inkscape.org/namespaces/inkscape"
   width="148.81909"
   height="85.039291"
   id="svg3836"
   version="1.1"
   inkscape:version="0.48.4 r9939"
   sodipodi:docname="IMU-OriginalDimSVG.svg">
  <defs
     id="defs3838" />
  <sodipodi:namedview
     id="base"
     pagecolor="#ffffff"
     bordercolor="#666666"
     borderopacity="1.0"
     inkscape:pageopacity="0.0"
     inkscape:pageshadow="2"
     inkscape:zoom="0.35"
     inkscape:cx="-291.93803"
     inkscape:cy="241.70294"
     inkscape:document-units="mm"
     inkscape:current-layer="layer1"
     showgrid="false"
     inkscape:window-width="1920"
     inkscape:window-height="1018"
     inkscape:window-x="-8"
     inkscape:window-y="-8"
     inkscape:window-maximized="1"
     fit-margin-top="0"
     fit-margin-left="0"
     fit-margin-right="0"
     fit-margin-bottom="0"
     units="mm" />
  <metadata
     id="metadata3841">
    <rdf:RDF>
      <cc:Work
         rdf:about="">
        <dc:format>image/svg+xml</dc:format>
        <dc:type
           rdf:resource="http://purl.org/dc/dcmitype/StillImage" />
        <dc:title></dc:title>
      </cc:Work>
    </rdf:RDF>
  </metadata>
  <g
     inkscape:label="Layer 1"
     inkscape:groupmode="layer"
     id="layer1"
     transform="translate(-225.50946,-689.02582)">
    <path
       style="fill:#000000"
       d="m 262.61043,773.8793 c 2.5138,-0.67524 4.35069,-2.57653 4.97809,-5.15261 0.14152,-0.58112 0.32343,-1.14147 0.40424,-1.24524 0.11659,-0.14969 5.75513,-0.18867 27.29446,-0.18867 22.84484,0 27.22692,-0.0333 27.64846,-0.20996 0.47262,-0.19808 0.52035,-0.28978 0.84453,-1.62258 0.40907,-1.68186 0.84915,-2.61756 1.78643,-3.79825 1.03293,-1.3012 3.18746,-2.43112 5.35889,-2.8104 2.52408,-0.4409 5.90226,0.8319 7.46254,2.81166 1.24727,1.5826 1.62875,2.42464 2.15596,4.75889 0.20486,0.90704 -0.19254,0.88162 13.07772,0.83638 l 12.08763,-0.0412 0.61022,-0.40512 c 0.38332,-0.25448 0.7429,-0.67542 0.96703,-1.13204 l 0.3568,-0.72692 0.0408,-13.16445 0.0408,-13.16445 0.77649,-0.2313 c 0.42707,-0.12722 0.85889,-0.2313 0.95962,-0.2313 0.36015,0 1.90527,-0.91342 2.70636,-1.59992 2.2976,-1.96892 2.84298,-5.66339 1.25,-8.4679 -0.79007,-1.39096 -2.64825,-2.69808 -4.72078,-3.3208 l -0.90287,-0.27127 -0.0752,-13.13162 -0.0752,-13.13161 -0.3568,-0.72691 c -0.22413,-0.45661 -0.58371,-0.87756 -0.96703,-1.13203 l -0.61022,-0.40513 -12.08763,-0.0412 c -13.27026,-0.0452 -12.87286,-0.0707 -13.07772,0.83639 -0.52721,2.33425 -0.90869,3.17628 -2.15596,4.75887 -1.54265,1.95741 -4.95583,3.25733 -7.41238,2.82303 -2.19956,-0.38885 -4.37481,-1.52453 -5.40905,-2.82402 -0.9349,-1.17467 -1.37702,-2.11268 -1.78344,-3.78383 -0.25527,-1.04968 -0.42091,-1.44665 -0.66126,-1.58485 -0.24797,-0.14257 -6.50562,-0.20148 -27.60014,-0.25984 -24.02759,-0.0665 -27.29692,-0.10246 -27.42574,-0.30188 -0.0804,-0.12452 -0.3149,-0.77309 -0.52103,-1.44126 -0.82664,-2.67959 -2.92205,-4.55439 -5.64356,-5.04941 -1.75901,-0.31994 -4.1306,0.33942 -5.3216,1.47953 -1.12051,1.07265 -1.86635,2.24517 -2.2677,3.56504 -0.21014,0.69105 -0.49448,1.35006 -0.63188,1.46447 -0.20646,0.17194 -2.52418,0.22113 -13.35588,0.28351 l -13.10609,0.0754 -0.5567,0.34722 c -0.30619,0.19097 -0.69173,0.56636 -0.85676,0.8342 -0.29304,0.47562 -0.30034,0.77425 -0.31259,12.80027 -0.01,9.81799 0.0264,12.34529 0.17961,12.47112 0.10568,0.0868 0.80158,0.34279 1.54644,0.56888 0.74486,0.2261 1.69287,0.58145 2.10668,0.7897 1.0485,0.52763 2.39426,1.7336 3.10335,2.781 2.27724,3.36366 2.27899,6.69176 0.005,10.05021 -1.10828,1.63702 -3.11333,2.99569 -5.29054,3.58499 -0.53795,0.14561 -1.13228,0.36016 -1.32073,0.47676 l -0.34264,0.21202 0.0125,12.32901 c 0.0123,12.04169 0.0196,12.34034 0.3126,12.81597 0.16503,0.26784 0.55057,0.64323 0.85676,0.8342 l 0.5567,0.34722 13.20298,0.0409 13.20299,0.0409 0.21601,0.3364 c 0.11882,0.18503 0.32756,0.77306 0.46389,1.30673 0.13634,0.53368 0.4067,1.28083 0.6008,1.66032 0.39517,0.77261 1.65168,2.04618 2.54773,2.58234 1.34991,0.80773 3.58093,1.10982 5.12771,0.69433 z"
       id="path3167"
       inkscape:connector-curvature="0" />
  </g>
</svg>
