  0
SECTION
  2
HEADER
  9
$ACADVER
  1
AC1014
  9
$HANDSEED
  5
FFFF
  9
$MEASUREMENT
 70
     1
  0
ENDSEC
  0
SECTION
  2
TABLES
  0
TABLE
  2
VPORT
  5
8
330
0
100
AcDbSymbolTable
 70
     4
  0
VPORT
  5
2E
330
8
100
AcDbSymbolTableRecord
100
AcDbViewportTableRecord
  2
*ACTIVE
 70
     0
 10
0.0
 20
0.0
 11
1.0
 21
1.0
 12
210.0
 22
148.5
 13
0.0
 23
0.0
 14
10.0
 24
10.0
 15
10.0
 25
10.0
 16
0.0
 26
0.0
 36
1.0
 17
0.0
 27
0.0
 37
0.0
 40
341.0
 41
1.24
 42
50.0
 43
0.0
 44
0.0
 50
0.0
 51
0.0
 71
     0
 72
   100
 73
     1
 74
     3
 75
     0
 76
     0
 77
     0
 78
     0
  0
ENDTAB
  0
TABLE
  2
LTYPE
  5
5
330
0
100
AcDbSymbolTable
 70
     1
  0
LTYPE
  5
14
330
5
100
AcDbSymbolTableRecord
100
AcDbLinetypeTableRecord
  2
BYBLOCK
 70
     0
  3

 72
    65
 73
     0
 40
0.0
  0
LTYPE
  5
15
330
5
100
AcDbSymbolTableRecord
100
AcDbLinetypeTableRecord
  2
BYLAYER
 70
     0
  3

 72
    65
 73
     0
 40
0.0
  0
LTYPE
  5
16
330
5
100
AcDbSymbolTableRecord
100
AcDbLinetypeTableRecord
  2
CONTINUOUS
 70
     0
  3
Solid line
 72
    65
 73
     0
 40
0.0
  0
ENDTAB
  0
TABLE
  2
LAYER
  5
2
100
AcDbSymbolTable
 70
2
  0
LAYER
  5
50
100
AcDbSymbolTableRecord
100
AcDbLayerTableRecord
  2
0
 70
0
  6
CONTINUOUS
  0
LAYER
  5
51
100
AcDbSymbolTableRecord
100
AcDbLayerTableRecord
  2
Layer_1
 70
0
  6
CONTINUOUS
  0
ENDTAB
  0
TABLE
  2
STYLE
  5
3
330
0
100
AcDbSymbolTable
 70
     1
  0
STYLE
  5
11
330
3
100
AcDbSymbolTableRecord
100
AcDbTextStyleTableRecord
  2
STANDARD
 70
     0
 40
0.0
 41
1.0
 50
0.0
 71
     0
 42
2.5
  3
txt
  4

  0
ENDTAB
  0
TABLE
  2
VIEW
  5
6
330
0
100
AcDbSymbolTable
 70
     0
  0
ENDTAB
  0
TABLE
  2
UCS
  5
7
330
0
100
AcDbSymbolTable
 70
     0
  0
ENDTAB
  0
TABLE
  2
APPID
  5
9
330
0
100
AcDbSymbolTable
 70
     2
  0
APPID
  5
12
330
9
100
AcDbSymbolTableRecord
100
AcDbRegAppTableRecord
  2
ACAD
 70
     0
  0
ENDTAB
  0
TABLE
  2
DIMSTYLE
  5
A
330
0
100
AcDbSymbolTable
 70
     1
  0
DIMSTYLE
105
27
330
A
100
AcDbSymbolTableRecord
100
AcDbDimStyleTableRecord
  2
ISO-25
 70
     0
  3

  4

  5

  6

  7

 40
1.0
 41
2.5
 42
0.625
 43
3.75
 44
1.25
 45
0.0
 46
0.0
 47
0.0
 48
0.0
140
2.5
141
2.5
142
0.0
143
0.03937007874016
144
1.0
145
0.0
146
1.0
147
0.625
 71
     0
 72
     0
 73
     0
 74
     0
 75
     0
 76
     0
 77
     1
 78
     8
170
     0
171
     3
172
     1
173
     0
174
     0
175
     0
176
     0
177
     0
178
     0
270
     2
271
     2
272
     2
273
     2
274
     3
340
11
275
     0
280
     0
281
     0
282
     0
283
     0
284
     8
285
     0
286
     0
287
     3
288
     0
  0
ENDTAB
  0
TABLE
  2
BLOCK_RECORD
  5
1
330
0
100
AcDbSymbolTable
 70
     1
  0
BLOCK_RECORD
  5
1F
330
1
100
AcDbSymbolTableRecord
100
AcDbBlockTableRecord
  2
*MODEL_SPACE
  0
BLOCK_RECORD
  5
1B
330
1
100
AcDbSymbolTableRecord
100
AcDbBlockTableRecord
  2
*PAPER_SPACE
  0
ENDTAB
  0
ENDSEC
  0
SECTION
  2
BLOCKS
  0
BLOCK
  5
20
330
1F
100
AcDbEntity
  8
0
100
AcDbBlockBegin
  2
*MODEL_SPACE
 70
     0
 10
0.0
 20
0.0
 30
0.0
  3
*MODEL_SPACE
  1

  0
ENDBLK
  5
21
330
1F
100
AcDbEntity
  8
0
100
AcDbBlockEnd
  0
BLOCK
  5
1C
330
1B
100
AcDbEntity
 67
     1
  8
0
100
AcDbBlockBegin
  2
*PAPER_SPACE
  1

  0
ENDBLK
  5
1D
330
1B
100
AcDbEntity
 67
     1
  8
0
100
AcDbBlockEnd
  0
ENDSEC
  0
SECTION
  2
ENTITIES
  0
LWPOLYLINE
  5
100
100
AcDbEntity
  8
Layer_1
 62
7
100
AcDbPolyline
 90
63
 70
0
 10
6.149224
 20
21.776546
 30
0.0
 10
4.266813
 20
21.781626
 30
0.0
 10
2.388376
 20
21.786057
 30
0.0
 10
0.000000
 20
21.786001
 30
0.0
 10
0.000000
 20
2.196000
 30
0.0
 10
1.472097
 20
2.195949
 30
0.0
 10
2.563379
 20
2.194255
 30
0.0
 10
3.659271
 20
2.235031
 30
0.0
 10
4.750983
 20
2.202575
 30
0.0
 10
5.602633
 20
2.206188
 30
0.0
 10
6.454450
 20
2.200769
 30
0.0
 10
7.305619
 20
2.174946
 30
0.0
 10
14.703671
 20
2.189480
 30
0.0
 10
17.374238
 20
2.200233
 30
0.0
 10
20.045598
 20
2.181098
 30
0.0
 10
22.716216
 20
2.187872
 30
0.0
 10
23.881450
 20
2.181663
 30
0.0
 10
25.046754
 20
2.195294
 30
0.0
 10
26.210957
 20
2.240498
 30
0.0
 10
27.372883
 20
2.328980
 30
0.0
 10
28.016254
 20
3.671709
 30
0.0
 10
29.292271
 20
4.455022
 30
0.0
 10
30.770556
 20
4.521480
 30
0.0
 10
32.020730
 20
3.713633
 30
0.0
 10
32.310905
 20
3.386252
 30
0.0
 10
32.512079
 20
2.980143
 30
0.0
 10
32.679248
 20
2.574770
 30
0.0
 10
32.867397
 20
2.249605
 30
0.0
 10
34.554657
 20
2.204164
 30
0.0
 10
36.254540
 20
2.182715
 30
0.0
 10
37.943163
 20
2.214561
 30
0.0
 10
39.596633
 20
2.328969
 30
0.0
 10
39.862879
 20
3.107625
 30
0.0
 10
39.864854
 20
3.935383
 30
0.0
 10
39.794519
 20
4.780142
 30
0.0
 10
39.844212
 20
5.609802
 30
0.0
 10
39.846188
 20
6.762945
 30
0.0
 10
39.848163
 20
7.916088
 30
0.0
 10
39.850139
 20
9.069228
 30
0.0
 10
39.843987
 20
16.177836
 30
0.0
 10
39.876659
 20
17.999290
 30
0.0
 10
39.846352
 20
19.817250
 30
0.0
 10
39.649273
 20
21.625913
 30
0.0
 10
38.758498
 20
21.780235
 30
0.0
 10
37.849852
 20
21.767309
 30
0.0
 10
36.934761
 20
21.717026
 30
0.0
 10
36.024656
 20
21.759288
 30
0.0
 10
35.181777
 20
21.784914
 30
0.0
 10
34.308627
 20
21.814130
 30
0.0
 10
33.464418
 20
21.745101
 30
0.0
 10
32.708370
 20
21.475991
 30
0.0
 10
31.945574
 20
20.143084
 30
0.0
 10
30.559386
 20
19.459660
 30
0.0
 10
29.035017
 20
19.544073
 30
0.0
 10
27.857676
 20
20.514672
 30
0.0
 10
27.642668
 20
20.909351
 30
0.0
 10
27.501418
 20
21.357957
 30
0.0
 10
27.284756
 20
21.686704
 30
0.0
 10
26.843510
 20
21.721812
 30
0.0
 10
23.104077
 20
21.768926
 30
0.0
 10
19.364192
 20
21.775135
 30
0.0
 10
15.624505
 20
21.792435
 30
0.0
 10
6.149224
 20
21.776546
 30
0.0
  0
ENDSEC
  0
SECTION
  2
OBJECTS
  0
DICTIONARY
  5
C
330
0
100
AcDbDictionary
  3
ACAD_GROUP
350
D
  3
ACAD_MLINESTYLE
350
17
  0
DICTIONARY
  5
D
330
C
100
AcDbDictionary
  0
DICTIONARY
  5
1A
330
C
100
AcDbDictionary
  0
DICTIONARY
  5
17
330
C
100
AcDbDictionary
  3
STANDARD
350
18
  0
DICTIONARY
  5
19
330
C
100
AcDbDictionary
  0
ENDSEC
  0
EOF
