  0
SECTION
  2
HEADER
  9
$ACADVER
  1
AC1014
  9
$HANDSEED
  5
FFFF
  9
$MEASUREMENT
 70
     1
  0
ENDSEC
  0
SECTION
  2
TABLES
  0
TABLE
  2
VPORT
  5
8
330
0
100
AcDbSymbolTable
 70
     4
  0
VPORT
  5
2E
330
8
100
AcDbSymbolTableRecord
100
AcDbViewportTableRecord
  2
*ACTIVE
 70
     0
 10
0.0
 20
0.0
 11
1.0
 21
1.0
 12
210.0
 22
148.5
 13
0.0
 23
0.0
 14
10.0
 24
10.0
 15
10.0
 25
10.0
 16
0.0
 26
0.0
 36
1.0
 17
0.0
 27
0.0
 37
0.0
 40
341.0
 41
1.24
 42
50.0
 43
0.0
 44
0.0
 50
0.0
 51
0.0
 71
     0
 72
   100
 73
     1
 74
     3
 75
     0
 76
     0
 77
     0
 78
     0
  0
ENDTAB
  0
TABLE
  2
LTYPE
  5
5
330
0
100
AcDbSymbolTable
 70
     1
  0
LTYPE
  5
14
330
5
100
AcDbSymbolTableRecord
100
AcDbLinetypeTableRecord
  2
BYBLOCK
 70
     0
  3

 72
    65
 73
     0
 40
0.0
  0
LTYPE
  5
15
330
5
100
AcDbSymbolTableRecord
100
AcDbLinetypeTableRecord
  2
BYLAYER
 70
     0
  3

 72
    65
 73
     0
 40
0.0
  0
LTYPE
  5
16
330
5
100
AcDbSymbolTableRecord
100
AcDbLinetypeTableRecord
  2
CONTINUOUS
 70
     0
  3
Solid line
 72
    65
 73
     0
 40
0.0
  0
ENDTAB
  0
TABLE
  2
LAYER
  5
2
100
AcDbSymbolTable
 70
2
  0
LAYER
  5
50
100
AcDbSymbolTableRecord
100
AcDbLayerTableRecord
  2
0
 70
0
  6
CONTINUOUS
  0
LAYER
  5
51
100
AcDbSymbolTableRecord
100
AcDbLayerTableRecord
  2
Layer_1
 70
0
  6
CONTINUOUS
  0
ENDTAB
  0
TABLE
  2
STYLE
  5
3
330
0
100
AcDbSymbolTable
 70
     1
  0
STYLE
  5
11
330
3
100
AcDbSymbolTableRecord
100
AcDbTextStyleTableRecord
  2
STANDARD
 70
     0
 40
0.0
 41
1.0
 50
0.0
 71
     0
 42
2.5
  3
txt
  4

  0
ENDTAB
  0
TABLE
  2
VIEW
  5
6
330
0
100
AcDbSymbolTable
 70
     0
  0
ENDTAB
  0
TABLE
  2
UCS
  5
7
330
0
100
AcDbSymbolTable
 70
     0
  0
ENDTAB
  0
TABLE
  2
APPID
  5
9
330
0
100
AcDbSymbolTable
 70
     2
  0
APPID
  5
12
330
9
100
AcDbSymbolTableRecord
100
AcDbRegAppTableRecord
  2
ACAD
 70
     0
  0
ENDTAB
  0
TABLE
  2
DIMSTYLE
  5
A
330
0
100
AcDbSymbolTable
 70
     1
  0
DIMSTYLE
105
27
330
A
100
AcDbSymbolTableRecord
100
AcDbDimStyleTableRecord
  2
ISO-25
 70
     0
  3

  4

  5

  6

  7

 40
1.0
 41
2.5
 42
0.625
 43
3.75
 44
1.25
 45
0.0
 46
0.0
 47
0.0
 48
0.0
140
2.5
141
2.5
142
0.0
143
0.03937007874016
144
1.0
145
0.0
146
1.0
147
0.625
 71
     0
 72
     0
 73
     0
 74
     0
 75
     0
 76
     0
 77
     1
 78
     8
170
     0
171
     3
172
     1
173
     0
174
     0
175
     0
176
     0
177
     0
178
     0
270
     2
271
     2
272
     2
273
     2
274
     3
340
11
275
     0
280
     0
281
     0
282
     0
283
     0
284
     8
285
     0
286
     0
287
     3
288
     0
  0
ENDTAB
  0
TABLE
  2
BLOCK_RECORD
  5
1
330
0
100
AcDbSymbolTable
 70
     1
  0
BLOCK_RECORD
  5
1F
330
1
100
AcDbSymbolTableRecord
100
AcDbBlockTableRecord
  2
*MODEL_SPACE
  0
BLOCK_RECORD
  5
1B
330
1
100
AcDbSymbolTableRecord
100
AcDbBlockTableRecord
  2
*PAPER_SPACE
  0
ENDTAB
  0
ENDSEC
  0
SECTION
  2
BLOCKS
  0
BLOCK
  5
20
330
1F
100
AcDbEntity
  8
0
100
AcDbBlockBegin
  2
*MODEL_SPACE
 70
     0
 10
0.0
 20
0.0
 30
0.0
  3
*MODEL_SPACE
  1

  0
ENDBLK
  5
21
330
1F
100
AcDbEntity
  8
0
100
AcDbBlockEnd
  0
BLOCK
  5
1C
330
1B
100
AcDbEntity
 67
     1
  8
0
100
AcDbBlockBegin
  2
*PAPER_SPACE
  1

  0
ENDBLK
  5
1D
330
1B
100
AcDbEntity
 67
     1
  8
0
100
AcDbBlockEnd
  0
ENDSEC
  0
SECTION
  2
ENTITIES
  0
LWPOLYLINE
  5
100
100
AcDbEntity
  8
Layer_1
 62
1
100
AcDbPolyline
 90
118
 70
0
 10
10.697125
 20
0.173338
 30
0.0
 10
11.606516
 20
0.707102
 30
0.0
 10
12.113398
 20
1.649214
 30
0.0
 10
12.177381
 20
1.878827
 30
0.0
 10
12.228404
 20
2.005889
 30
0.0
 10
13.825508
 20
2.048990
 30
0.0
 10
19.993709
 20
2.059940
 30
0.0
 10
26.319014
 20
2.071031
 30
0.0
 10
27.859728
 20
2.120076
 30
0.0
 10
27.995699
 20
2.230572
 30
0.0
 10
28.099997
 20
2.584837
 30
0.0
 10
28.297767
 20
3.182637
 30
0.0
 10
28.608240
 20
3.672778
 30
0.0
 10
29.249082
 20
4.174298
 30
0.0
 10
30.132850
 20
4.477769
 30
0.0
 10
31.297228
 20
4.335100
 30
0.0
 10
32.255951
 20
3.672417
 30
0.0
 10
32.639460
 20
3.071602
 30
0.0
 10
32.869324
 20
2.309317
 30
0.0
 10
33.335719
 20
2.087248
 30
0.0
 10
36.589950
 20
2.069750
 30
0.0
 10
38.309426
 20
2.075648
 30
0.0
 10
40.028896
 20
2.081547
 30
0.0
 10
40.115699
 20
2.139566
 30
0.0
 10
40.202505
 20
2.197588
 30
0.0
 10
40.357047
 20
2.338002
 30
0.0
 10
40.477626
 20
2.521842
 30
0.0
 10
40.528381
 20
2.625948
 30
0.0
 10
40.579136
 20
2.730054
 30
0.0
 10
40.584950
 20
4.615420
 30
0.0
 10
40.590764
 20
6.500783
 30
0.0
 10
40.596577
 20
8.386146
 30
0.0
 10
40.602391
 20
10.271509
 30
0.0
 10
40.712847
 20
10.304636
 30
0.0
 10
40.823303
 20
10.337760
 30
0.0
 10
40.994626
 20
10.384553
 30
0.0
 10
41.096317
 20
10.403998
 30
0.0
 10
41.434255
 20
10.559395
 30
0.0
 10
41.866278
 20
10.862268
 30
0.0
 10
42.459168
 20
11.985258
 30
0.0
 10
42.221904
 20
13.287750
 30
0.0
 10
41.687194
 20
13.845862
 30
0.0
 10
40.878836
 20
14.238935
 30
0.0
 10
40.750405
 20
14.277786
 30
0.0
 10
40.621969
 20
14.316637
 30
0.0
 10
40.611273
 20
16.197298
 30
0.0
 10
40.600576
 20
18.077959
 30
0.0
 10
40.589880
 20
19.958620
 30
0.0
 10
40.579184
 20
21.839281
 30
0.0
 10
40.528429
 20
21.943387
 30
0.0
 10
40.477674
 20
22.047491
 30
0.0
 10
40.357095
 20
22.231330
 30
0.0
 10
40.202553
 20
22.371741
 30
0.0
 10
40.115747
 20
22.429764
 30
0.0
 10
40.028944
 20
22.487786
 30
0.0
 10
38.309474
 20
22.493684
 30
0.0
 10
36.589998
 20
22.499582
 30
0.0
 10
33.335767
 20
22.482085
 30
0.0
 10
32.869372
 20
22.260012
 30
0.0
 10
32.639508
 20
21.497727
 30
0.0
 10
32.255999
 20
20.896919
 30
0.0
 10
31.299085
 20
20.235717
 30
0.0
 10
30.147170
 20
20.088310
 30
0.0
 10
29.253403
 20
20.394944
 30
0.0
 10
28.608288
 20
20.897201
 30
0.0
 10
28.298211
 20
21.385781
 30
0.0
 10
28.100898
 20
21.981013
 30
0.0
 10
28.005238
 20
22.305893
 30
0.0
 10
27.912768
 20
22.434968
 30
0.0
 10
26.210709
 20
22.481224
 30
0.0
 10
20.060497
 20
22.509390
 30
0.0
 10
13.609458
 20
22.538346
 30
0.0
 10
12.257842
 20
22.595857
 30
0.0
 10
12.197136
 20
22.743874
 30
0.0
 10
12.109608
 20
23.008683
 30
0.0
 10
11.508966
 20
23.966489
 30
0.0
 10
10.504009
 20
24.454999
 30
0.0
 10
9.686409
 20
24.399934
 30
0.0
 10
8.990008
 20
24.031211
 30
0.0
 10
8.590698
 20
23.547194
 30
0.0
 10
8.344845
 20
23.010069
 30
0.0
 10
8.247197
 20
22.738393
 30
0.0
 10
8.165073
 20
22.590596
 30
0.0
 10
7.398777
 20
22.538224
 30
0.0
 10
4.365312
 20
22.509390
 30
0.0
 10
2.500963
 20
22.498581
 30
0.0
 10
0.636611
 20
22.487771
 30
0.0
 10
0.557423
 20
22.438044
 30
0.0
 10
0.478231
 20
22.388316
 30
0.0
 10
0.341297
 20
22.277101
 30
0.0
 10
0.234482
 20
22.149373
 30
0.0
 10
0.160060
 20
21.556822
 30
0.0
 10
0.145553
 20
18.482959
 30
0.0
 10
0.153681
 20
15.655835
 30
0.0
 10
0.143662
 20
7.856545
 30
0.0
 10
0.145356
 20
6.090827
 30
0.0
 10
0.159862
 20
3.013035
 30
0.0
 10
0.234278
 20
2.419917
 30
0.0
 10
0.341094
 20
2.292186
 30
0.0
 10
0.478025
 20
2.180974
 30
0.0
 10
0.557217
 20
2.131246
 30
0.0
 10
0.636408
 20
2.081519
 30
0.0
 10
2.514541
 20
2.075677
 30
0.0
 10
4.392670
 20
2.069835
 30
0.0
 10
6.270806
 20
2.063964
 30
0.0
 10
8.148938
 20
2.058122
 30
0.0
 10
8.179666
 20
2.009944
 30
0.0
 10
8.210392
 20
1.961766
 30
0.0
 10
8.274513
 20
1.812073
 30
0.0
 10
8.342370
 20
1.587477
 30
0.0
 10
8.421672
 20
1.333130
 30
0.0
 10
8.513298
 20
1.111908
 30
0.0
 10
8.822278
 20
0.716678
 30
0.0
 10
9.238130
 20
0.372243
 30
0.0
 10
9.946547
 20
0.141413
 30
0.0
 10
10.696970
 20
0.173363
 30
0.0
 10
10.697012
 20
0.173349
 30
0.0
 10
10.697125
 20
0.173338
 30
0.0
  0
ENDSEC
  0
SECTION
  2
OBJECTS
  0
DICTIONARY
  5
C
330
0
100
AcDbDictionary
  3
ACAD_GROUP
350
D
  3
ACAD_MLINESTYLE
350
17
  0
DICTIONARY
  5
D
330
C
100
AcDbDictionary
  0
DICTIONARY
  5
1A
330
C
100
AcDbDictionary
  0
DICTIONARY
  5
17
330
C
100
AcDbDictionary
  3
STANDARD
350
18
  0
DICTIONARY
  5
19
330
C
100
AcDbDictionary
  0
ENDSEC
  0
EOF
