  0
SECTION
  2
HEADER
  9
$ACADVER
  1
AC1014
  9
$HANDSEED
  5
FFFF
  9
$MEASUREMENT
 70
     1
  0
ENDSEC
  0
SECTION
  2
TABLES
  0
TABLE
  2
VPORT
  5
8
330
0
100
AcDbSymbolTable
 70
     4
  0
VPORT
  5
2E
330
8
100
AcDbSymbolTableRecord
100
AcDbViewportTableRecord
  2
*ACTIVE
 70
     0
 10
0.0
 20
0.0
 11
1.0
 21
1.0
 12
210.0
 22
148.5
 13
0.0
 23
0.0
 14
10.0
 24
10.0
 15
10.0
 25
10.0
 16
0.0
 26
0.0
 36
1.0
 17
0.0
 27
0.0
 37
0.0
 40
341.0
 41
1.24
 42
50.0
 43
0.0
 44
0.0
 50
0.0
 51
0.0
 71
     0
 72
   100
 73
     1
 74
     3
 75
     0
 76
     0
 77
     0
 78
     0
  0
ENDTAB
  0
TABLE
  2
LTYPE
  5
5
330
0
100
AcDbSymbolTable
 70
     1
  0
LTYPE
  5
14
330
5
100
AcDbSymbolTableRecord
100
AcDbLinetypeTableRecord
  2
BYBLOCK
 70
     0
  3

 72
    65
 73
     0
 40
0.0
  0
LTYPE
  5
15
330
5
100
AcDbSymbolTableRecord
100
AcDbLinetypeTableRecord
  2
BYLAYER
 70
     0
  3

 72
    65
 73
     0
 40
0.0
  0
LTYPE
  5
16
330
5
100
AcDbSymbolTableRecord
100
AcDbLinetypeTableRecord
  2
CONTINUOUS
 70
     0
  3
Solid line
 72
    65
 73
     0
 40
0.0
  0
ENDTAB
  0
TABLE
  2
LAYER
  5
2
100
AcDbSymbolTable
 70
2
  0
LAYER
  5
50
100
AcDbSymbolTableRecord
100
AcDbLayerTableRecord
  2
0
 70
0
  6
CONTINUOUS
  0
LAYER
  5
51
100
AcDbSymbolTableRecord
100
AcDbLayerTableRecord
  2
Layer_1
 70
0
  6
CONTINUOUS
  0
ENDTAB
  0
TABLE
  2
STYLE
  5
3
330
0
100
AcDbSymbolTable
 70
     1
  0
STYLE
  5
11
330
3
100
AcDbSymbolTableRecord
100
AcDbTextStyleTableRecord
  2
STANDARD
 70
     0
 40
0.0
 41
1.0
 50
0.0
 71
     0
 42
2.5
  3
txt
  4

  0
ENDTAB
  0
TABLE
  2
VIEW
  5
6
330
0
100
AcDbSymbolTable
 70
     0
  0
ENDTAB
  0
TABLE
  2
UCS
  5
7
330
0
100
AcDbSymbolTable
 70
     0
  0
ENDTAB
  0
TABLE
  2
APPID
  5
9
330
0
100
AcDbSymbolTable
 70
     2
  0
APPID
  5
12
330
9
100
AcDbSymbolTableRecord
100
AcDbRegAppTableRecord
  2
ACAD
 70
     0
  0
ENDTAB
  0
TABLE
  2
DIMSTYLE
  5
A
330
0
100
AcDbSymbolTable
 70
     1
  0
DIMSTYLE
105
27
330
A
100
AcDbSymbolTableRecord
100
AcDbDimStyleTableRecord
  2
ISO-25
 70
     0
  3

  4

  5

  6

  7

 40
1.0
 41
2.5
 42
0.625
 43
3.75
 44
1.25
 45
0.0
 46
0.0
 47
0.0
 48
0.0
140
2.5
141
2.5
142
0.0
143
0.03937007874016
144
1.0
145
0.0
146
1.0
147
0.625
 71
     0
 72
     0
 73
     0
 74
     0
 75
     0
 76
     0
 77
     1
 78
     8
170
     0
171
     3
172
     1
173
     0
174
     0
175
     0
176
     0
177
     0
178
     0
270
     2
271
     2
272
     2
273
     2
274
     3
340
11
275
     0
280
     0
281
     0
282
     0
283
     0
284
     8
285
     0
286
     0
287
     3
288
     0
  0
ENDTAB
  0
TABLE
  2
BLOCK_RECORD
  5
1
330
0
100
AcDbSymbolTable
 70
     1
  0
BLOCK_RECORD
  5
1F
330
1
100
AcDbSymbolTableRecord
100
AcDbBlockTableRecord
  2
*MODEL_SPACE
  0
BLOCK_RECORD
  5
1B
330
1
100
AcDbSymbolTableRecord
100
AcDbBlockTableRecord
  2
*PAPER_SPACE
  0
ENDTAB
  0
ENDSEC
  0
SECTION
  2
BLOCKS
  0
BLOCK
  5
20
330
1F
100
AcDbEntity
  8
0
100
AcDbBlockBegin
  2
*MODEL_SPACE
 70
     0
 10
0.0
 20
0.0
 30
0.0
  3
*MODEL_SPACE
  1

  0
ENDBLK
  5
21
330
1F
100
AcDbEntity
  8
0
100
AcDbBlockEnd
  0
BLOCK
  5
1C
330
1B
100
AcDbEntity
 67
     1
  8
0
100
AcDbBlockBegin
  2
*PAPER_SPACE
  1

  0
ENDBLK
  5
1D
330
1B
100
AcDbEntity
 67
     1
  8
0
100
AcDbBlockEnd
  0
ENDSEC
  0
SECTION
  2
ENTITIES
  0
LWPOLYLINE
  5
100
100
AcDbEntity
  8
Layer_1
 62
1
100
AcDbPolyline
 90
118
 70
0
 10
10.470718
 20
0.052440
 30
0.0
 10
11.372825
 20
0.578358
 30
0.0
 10
11.875646
 20
1.506621
 30
0.0
 10
11.939115
 20
1.732859
 30
0.0
 10
11.989731
 20
1.858055
 30
0.0
 10
13.574042
 20
1.900521
 30
0.0
 10
19.692834
 20
1.911302
 30
0.0
 10
25.967473
 20
1.922224
 30
0.0
 10
27.495844
 20
1.970549
 30
0.0
 10
27.630727
 20
2.079422
 30
0.0
 10
27.734189
 20
2.428477
 30
0.0
 10
27.930373
 20
3.017492
 30
0.0
 10
28.238360
 20
3.500428
 30
0.0
 10
28.874068
 20
3.994576
 30
0.0
 10
29.750758
 20
4.293585
 30
0.0
 10
30.905808
 20
4.153013
 30
0.0
 10
31.856852
 20
3.500072
 30
0.0
 10
32.237288
 20
2.908089
 30
0.0
 10
32.465312
 20
2.157008
 30
0.0
 10
32.927970
 20
1.938204
 30
0.0
 10
36.156135
 20
1.920960
 30
0.0
 10
37.861835
 20
1.926774
 30
0.0
 10
39.567533
 20
1.932588
 30
0.0
 10
39.653642
 20
1.989754
 30
0.0
 10
39.739751
 20
2.046921
 30
0.0
 10
39.893057
 20
2.185272
 30
0.0
 10
40.012668
 20
2.366408
 30
0.0
 10
40.063016
 20
2.468985
 30
0.0
 10
40.113365
 20
2.571561
 30
0.0
 10
40.119122
 20
4.429213
 30
0.0
 10
40.124880
 20
6.286862
 30
0.0
 10
40.130637
 20
8.144513
 30
0.0
 10
40.136394
 20
10.002162
 30
0.0
 10
40.245967
 20
10.034801
 30
0.0
 10
40.355537
 20
10.067440
 30
0.0
 10
40.525488
 20
10.113544
 30
0.0
 10
40.626363
 20
10.132707
 30
0.0
 10
40.961595
 20
10.285818
 30
0.0
 10
41.390158
 20
10.584240
 30
0.0
 10
41.978298
 20
11.690723
 30
0.0
 10
41.742936
 20
12.974069
 30
0.0
 10
41.212508
 20
13.523976
 30
0.0
 10
40.410627
 20
13.911273
 30
0.0
 10
40.283223
 20
13.949553
 30
0.0
 10
40.155817
 20
13.987831
 30
0.0
 10
40.145205
 20
15.840849
 30
0.0
 10
40.134594
 20
17.693866
 30
0.0
 10
40.123982
 20
19.546881
 30
0.0
 10
40.113371
 20
21.399898
 30
0.0
 10
40.063022
 20
21.502475
 30
0.0
 10
40.012674
 20
21.605048
 30
0.0
 10
39.893062
 20
21.786184
 30
0.0
 10
39.739756
 20
21.924532
 30
0.0
 10
39.653647
 20
21.981702
 30
0.0
 10
39.567539
 20
22.038869
 30
0.0
 10
37.861841
 20
22.044683
 30
0.0
 10
36.156141
 20
22.050497
 30
0.0
 10
32.927976
 20
22.033253
 30
0.0
 10
32.465318
 20
21.814446
 30
0.0
 10
32.237293
 20
21.063365
 30
0.0
 10
31.856858
 20
20.471387
 30
0.0
 10
30.907609
 20
19.819905
 30
0.0
 10
29.764919
 20
19.674665
 30
0.0
 10
28.878313
 20
19.976793
 30
0.0
 10
28.238365
 20
20.471667
 30
0.0
 10
27.930771
 20
20.953064
 30
0.0
 10
27.735039
 20
21.539547
 30
0.0
 10
27.640147
 20
21.859652
 30
0.0
 10
27.548417
 20
21.986827
 30
0.0
 10
25.859991
 20
22.032406
 30
0.0
 10
19.759044
 20
22.060149
 30
0.0
 10
13.359680
 20
22.088678
 30
0.0
 10
12.018891
 20
22.145346
 30
0.0
 10
11.958673
 20
22.291187
 30
0.0
 10
11.871844
 20
22.552101
 30
0.0
 10
11.276014
 20
23.495830
 30
0.0
 10
10.279106
 20
23.977157
 30
0.0
 10
9.468056
 20
23.922903
 30
0.0
 10
8.777232
 20
23.559601
 30
0.0
 10
8.381122
 20
23.082699
 30
0.0
 10
8.137237
 20
22.553467
 30
0.0
 10
8.040373
 20
22.285785
 30
0.0
 10
7.958907
 20
22.140161
 30
0.0
 10
7.198749
 20
22.088560
 30
0.0
 10
4.189580
 20
22.060149
 30
0.0
 10
2.340167
 20
22.049509
 30
0.0
 10
0.490751
 20
22.038869
 30
0.0
 10
0.412194
 20
21.989872
 30
0.0
 10
0.333637
 20
21.940876
 30
0.0
 10
0.197801
 20
21.831297
 30
0.0
 10
0.091841
 20
21.705446
 30
0.0
 10
0.018014
 20
21.121605
 30
0.0
 10
0.003621
 20
18.092925
 30
0.0
 10
0.011692
 20
15.307358
 30
0.0
 10
0.001758
 20
7.622712
 30
0.0
 10
0.003452
 20
5.882951
 30
0.0
 10
0.017845
 20
2.850400
 30
0.0
 10
0.091663
 20
2.265999
 30
0.0
 10
0.197623
 20
2.140148
 30
0.0
 10
0.333460
 20
2.030569
 30
0.0
 10
0.412016
 20
1.981573
 30
0.0
 10
0.490573
 20
1.932576
 30
0.0
 10
2.353660
 20
1.926819
 30
0.0
 10
4.216747
 20
1.921062
 30
0.0
 10
6.079837
 20
1.915276
 30
0.0
 10
7.942924
 20
1.909519
 30
0.0
 10
7.973407
 20
1.862049
 30
0.0
 10
8.003887
 20
1.814579
 30
0.0
 10
8.067494
 20
1.667084
 30
0.0
 10
8.134807
 20
1.445791
 30
0.0
 10
8.213474
 20
1.195183
 30
0.0
 10
8.304366
 20
0.977212
 30
0.0
 10
8.610871
 20
0.587790
 30
0.0
 10
9.023392
 20
0.248418
 30
0.0
 10
9.726134
 20
0.020984
 30
0.0
 10
10.470546
 20
0.052463
 30
0.0
 10
10.470588
 20
0.052448
 30
0.0
 10
10.470718
 20
0.052440
 30
0.0
  0
ENDSEC
  0
SECTION
  2
OBJECTS
  0
DICTIONARY
  5
C
330
0
100
AcDbDictionary
  3
ACAD_GROUP
350
D
  3
ACAD_MLINESTYLE
350
17
  0
DICTIONARY
  5
D
330
C
100
AcDbDictionary
  0
DICTIONARY
  5
1A
330
C
100
AcDbDictionary
  0
DICTIONARY
  5
17
330
C
100
AcDbDictionary
  3
STANDARD
350
18
  0
DICTIONARY
  5
19
330
C
100
AcDbDictionary
  0
ENDSEC
  0
EOF
