  0
SECTION
  2
HEADER
  9
$ACADVER
  1
AC1014
  9
$HANDSEED
  5
FFFF
  9
$MEASUREMENT
 70
     1
  0
ENDSEC
  0
SECTION
  2
TABLES
  0
TABLE
  2
VPORT
  5
8
330
0
100
AcDbSymbolTable
 70
     4
  0
VPORT
  5
2E
330
8
100
AcDbSymbolTableRecord
100
AcDbViewportTableRecord
  2
*ACTIVE
 70
     0
 10
0.0
 20
0.0
 11
1.0
 21
1.0
 12
210.0
 22
148.5
 13
0.0
 23
0.0
 14
10.0
 24
10.0
 15
10.0
 25
10.0
 16
0.0
 26
0.0
 36
1.0
 17
0.0
 27
0.0
 37
0.0
 40
341.0
 41
1.24
 42
50.0
 43
0.0
 44
0.0
 50
0.0
 51
0.0
 71
     0
 72
   100
 73
     1
 74
     3
 75
     0
 76
     0
 77
     0
 78
     0
  0
ENDTAB
  0
TABLE
  2
LTYPE
  5
5
330
0
100
AcDbSymbolTable
 70
     1
  0
LTYPE
  5
14
330
5
100
AcDbSymbolTableRecord
100
AcDbLinetypeTableRecord
  2
BYBLOCK
 70
     0
  3

 72
    65
 73
     0
 40
0.0
  0
LTYPE
  5
15
330
5
100
AcDbSymbolTableRecord
100
AcDbLinetypeTableRecord
  2
BYLAYER
 70
     0
  3

 72
    65
 73
     0
 40
0.0
  0
LTYPE
  5
16
330
5
100
AcDbSymbolTableRecord
100
AcDbLinetypeTableRecord
  2
CONTINUOUS
 70
     0
  3
Solid line
 72
    65
 73
     0
 40
0.0
  0
ENDTAB
  0
TABLE
  2
LAYER
  5
2
100
AcDbSymbolTable
 70
1
  0
LAYER
  5
50
100
AcDbSymbolTableRecord
100
AcDbLayerTableRecord
  2
0
 70
0
  6
CONTINUOUS
  0
ENDTAB
  0
TABLE
  2
STYLE
  5
3
330
0
100
AcDbSymbolTable
 70
     1
  0
STYLE
  5
11
330
3
100
AcDbSymbolTableRecord
100
AcDbTextStyleTableRecord
  2
STANDARD
 70
     0
 40
0.0
 41
1.0
 50
0.0
 71
     0
 42
2.5
  3
txt
  4

  0
ENDTAB
  0
TABLE
  2
VIEW
  5
6
330
0
100
AcDbSymbolTable
 70
     0
  0
ENDTAB
  0
TABLE
  2
UCS
  5
7
330
0
100
AcDbSymbolTable
 70
     0
  0
ENDTAB
  0
TABLE
  2
APPID
  5
9
330
0
100
AcDbSymbolTable
 70
     2
  0
APPID
  5
12
330
9
100
AcDbSymbolTableRecord
100
AcDbRegAppTableRecord
  2
ACAD
 70
     0
  0
ENDTAB
  0
TABLE
  2
DIMSTYLE
  5
A
330
0
100
AcDbSymbolTable
 70
     1
  0
DIMSTYLE
105
27
330
A
100
AcDbSymbolTableRecord
100
AcDbDimStyleTableRecord
  2
ISO-25
 70
     0
  3

  4

  5

  6

  7

 40
1.0
 41
2.5
 42
0.625
 43
3.75
 44
1.25
 45
0.0
 46
0.0
 47
0.0
 48
0.0
140
2.5
141
2.5
142
0.0
143
0.03937007874016
144
1.0
145
0.0
146
1.0
147
0.625
 71
     0
 72
     0
 73
     0
 74
     0
 75
     0
 76
     0
 77
     1
 78
     8
170
     0
171
     3
172
     1
173
     0
174
     0
175
     0
176
     0
177
     0
178
     0
270
     2
271
     2
272
     2
273
     2
274
     3
340
11
275
     0
280
     0
281
     0
282
     0
283
     0
284
     8
285
     0
286
     0
287
     3
288
     0
  0
ENDTAB
  0
TABLE
  2
BLOCK_RECORD
  5
1
330
0
100
AcDbSymbolTable
 70
     1
  0
BLOCK_RECORD
  5
1F
330
1
100
AcDbSymbolTableRecord
100
AcDbBlockTableRecord
  2
*MODEL_SPACE
  0
BLOCK_RECORD
  5
1B
330
1
100
AcDbSymbolTableRecord
100
AcDbBlockTableRecord
  2
*PAPER_SPACE
  0
ENDTAB
  0
ENDSEC
  0
SECTION
  2
BLOCKS
  0
BLOCK
  5
20
330
1F
100
AcDbEntity
  8
0
100
AcDbBlockBegin
  2
*MODEL_SPACE
 70
     0
 10
0.0
 20
0.0
 30
0.0
  3
*MODEL_SPACE
  1

  0
ENDBLK
  5
21
330
1F
100
AcDbEntity
  8
0
100
AcDbBlockEnd
  0
BLOCK
  5
1C
330
1B
100
AcDbEntity
 67
     1
  8
0
100
AcDbBlockBegin
  2
*PAPER_SPACE
  1

  0
ENDBLK
  5
1D
330
1B
100
AcDbEntity
 67
     1
  8
0
100
AcDbBlockEnd
  0
ENDSEC
  0
SECTION
  2
ENTITIES
  0
LWPOLYLINE
  5
100
100
AcDbEntity
  8
0
 62
7
100
AcDbPolyline
 90
1025
 70
0
 10
10.292312
 20
24.581708
 30
0.0
 10
10.203140
 20
24.581341
 30
0.0
 10
10.123008
 20
24.580531
 30
0.0
 10
10.050686
 20
24.579081
 30
0.0
 10
9.984942
 20
24.576792
 30
0.0
 10
9.924547
 20
24.573463
 30
0.0
 10
9.868270
 20
24.568896
 30
0.0
 10
9.814879
 20
24.562892
 30
0.0
 10
9.763145
 20
24.555250
 30
0.0
 10
9.712936
 20
24.545430
 30
0.0
 10
9.664744
 20
24.533191
 30
0.0
 10
9.618278
 20
24.518784
 30
0.0
 10
9.573243
 20
24.502457
 30
0.0
 10
9.529346
 20
24.484462
 30
0.0
 10
9.486293
 20
24.465047
 30
0.0
 10
9.443792
 20
24.444462
 30
0.0
 10
9.401548
 20
24.422958
 30
0.0
 10
9.198457
 20
24.304438
 30
0.0
 10
9.011903
 20
24.168515
 30
0.0
 10
8.841841
 20
24.015152
 30
0.0
 10
8.688227
 20
23.844311
 30
0.0
 10
8.551018
 20
23.655952
 30
0.0
 10
8.430170
 20
23.450037
 30
0.0
 10
8.325639
 20
23.226529
 30
0.0
 10
8.237381
 20
22.985389
 30
0.0
 10
8.229719
 20
22.962716
 30
0.0
 10
8.221069
 20
22.939276
 30
0.0
 10
8.211603
 20
22.915384
 30
0.0
 10
8.201491
 20
22.891356
 30
0.0
 10
8.190905
 20
22.867507
 30
0.0
 10
8.180014
 20
22.844151
 30
0.0
 10
8.168990
 20
22.821604
 30
0.0
 10
8.158006
 20
22.800181
 30
0.0
 10
8.146441
 20
22.779985
 30
0.0
 10
8.134240
 20
22.761363
 30
0.0
 10
8.122429
 20
22.744997
 30
0.0
 10
8.112032
 20
22.731566
 30
0.0
 10
8.104076
 20
22.721750
 30
0.0
 10
8.099583
 20
22.716231
 30
0.0
 10
8.099580
 20
22.715689
 30
0.0
 10
8.105092
 20
22.720806
 30
0.0
 10
8.105077
 20
22.719702
 30
0.0
 10
8.105067
 20
22.718599
 30
0.0
 10
8.105061
 20
22.717495
 30
0.0
 10
8.105059
 20
22.716392
 30
0.0
 10
8.105061
 20
22.715288
 30
0.0
 10
8.105067
 20
22.714185
 30
0.0
 10
8.105077
 20
22.713081
 30
0.0
 10
8.105092
 20
22.711978
 30
0.0
 10
8.102891
 20
22.709773
 30
0.0
 10
8.100689
 20
22.707569
 30
0.0
 10
8.098488
 20
22.705365
 30
0.0
 10
8.096287
 20
22.703161
 30
0.0
 10
8.094085
 20
22.700957
 30
0.0
 10
8.091884
 20
22.698753
 30
0.0
 10
8.089683
 20
22.696549
 30
0.0
 10
8.087481
 20
22.694344
 30
0.0
 10
7.637690
 20
22.692140
 30
0.0
 10
7.187898
 20
22.689936
 30
0.0
 10
6.738106
 20
22.687732
 30
0.0
 10
6.288284
 20
22.685528
 30
0.0
 10
5.838492
 20
22.683323
 30
0.0
 10
5.388701
 20
22.681118
 30
0.0
 10
4.938909
 20
22.678913
 30
0.0
 10
4.489117
 20
22.676708
 30
0.0
 10
3.754630
 20
22.672559
 30
0.0
 10
3.119916
 20
22.668778
 30
0.0
 10
2.576706
 20
22.664671
 30
0.0
 10
2.116728
 20
22.659546
 30
0.0
 10
1.731709
 20
22.652707
 30
0.0
 10
1.413380
 20
22.643462
 30
0.0
 10
1.153468
 20
22.631114
 30
0.0
 10
0.943701
 20
22.614972
 30
0.0
 10
0.853781
 20
22.605195
 30
0.0
 10
0.771030
 20
22.593580
 30
0.0
 10
0.694789
 20
22.579292
 30
0.0
 10
0.624396
 20
22.561499
 30
0.0
 10
0.559189
 20
22.539365
 30
0.0
 10
0.498507
 20
22.512057
 30
0.0
 10
0.441690
 20
22.478741
 30
0.0
 10
0.388076
 20
22.438583
 30
0.0
 10
0.341037
 20
22.395369
 30
0.0
 10
0.303340
 20
22.353605
 30
0.0
 10
0.273410
 20
22.313543
 30
0.0
 10
0.249676
 20
22.275433
 30
0.0
 10
0.230563
 20
22.239527
 30
0.0
 10
0.214500
 20
22.206076
 30
0.0
 10
0.199912
 20
22.175331
 30
0.0
 10
0.185229
 20
22.147542
 30
0.0
 10
0.170897
 20
22.123288
 30
0.0
 10
0.156565
 20
22.099035
 30
0.0
 10
0.142234
 20
22.074782
 30
0.0
 10
0.127902
 20
22.050528
 30
0.0
 10
0.113570
 20
22.026275
 30
0.0
 10
0.099239
 20
22.002022
 30
0.0
 10
0.084907
 20
21.977768
 30
0.0
 10
0.070576
 20
21.953515
 30
0.0
 10
0.060684
 20
21.936395
 30
0.0
 10
0.051992
 20
21.918636
 30
0.0
 10
0.044525
 20
21.900327
 30
0.0
 10
0.038310
 20
21.881555
 30
0.0
 10
0.033372
 20
21.862407
 30
0.0
 10
0.029737
 20
21.842971
 30
0.0
 10
0.027431
 20
21.823334
 30
0.0
 10
0.026478
 20
21.803584
 30
0.0
 10
0.024273
 20
21.375841
 30
0.0
 10
0.022068
 20
20.948098
 30
0.0
 10
0.019863
 20
20.520355
 30
0.0
 10
0.017658
 20
20.092612
 30
0.0
 10
0.015453
 20
19.664869
 30
0.0
 10
0.013248
 20
19.237126
 30
0.0
 10
0.011043
 20
18.809383
 30
0.0
 10
0.008840
 20
18.381639
 30
0.0
 10
0.007228
 20
17.892901
 30
0.0
 10
0.005921
 20
17.449625
 30
0.0
 10
0.004999
 20
17.049763
 30
0.0
 10
0.004536
 20
16.691267
 30
0.0
 10
0.004611
 20
16.372087
 30
0.0
 10
0.005303
 20
16.090177
 30
0.0
 10
0.006686
 20
15.843488
 30
0.0
 10
0.008840
 20
15.629972
 30
0.0
 10
0.010273
 20
15.535142
 30
0.0
 10
0.011989
 20
15.448011
 30
0.0
 10
0.013956
 20
15.368196
 30
0.0
 10
0.016144
 20
15.295317
 30
0.0
 10
0.018521
 20
15.228992
 30
0.0
 10
0.021057
 20
15.168839
 30
0.0
 10
0.023720
 20
15.114479
 30
0.0
 10
0.026479
 20
15.065528
 30
0.0
 10
0.028019
 20
15.042800
 30
0.0
 10
0.029820
 20
15.020968
 30
0.0
 10
0.031845
 20
14.999993
 30
0.0
 10
0.034061
 20
14.979842
 30
0.0
 10
0.036431
 20
14.960482
 30
0.0
 10
0.038921
 20
14.941875
 30
0.0
 10
0.041495
 20
14.923985
 30
0.0
 10
0.044118
 20
14.906778
 30
0.0
 10
0.045495
 20
14.898534
 30
0.0
 10
0.047019
 20
14.890539
 30
0.0
 10
0.048736
 20
14.882586
 30
0.0
 10
0.050689
 20
14.874469
 30
0.0
 10
0.052923
 20
14.865980
 30
0.0
 10
0.055483
 20
14.856915
 30
0.0
 10
0.058412
 20
14.847065
 30
0.0
 10
0.061756
 20
14.836222
 30
0.0
 10
0.064869
 20
14.824180
 30
0.0
 10
0.067945
 20
14.810706
 30
0.0
 10
0.072290
 20
14.795560
 30
0.0
 10
0.079211
 20
14.778499
 30
0.0
 10
0.090014
 20
14.759283
 30
0.0
 10
0.106004
 20
14.737670
 30
0.0
 10
0.128487
 20
14.713419
 30
0.0
 10
0.158770
 20
14.686289
 30
0.0
 10
0.185311
 20
14.665125
 30
0.0
 10
0.206510
 20
14.649775
 30
0.0
 10
0.223450
 20
14.639096
 30
0.0
 10
0.237218
 20
14.631944
 30
0.0
 10
0.248896
 20
14.627175
 30
0.0
 10
0.259570
 20
14.623647
 30
0.0
 10
0.270324
 20
14.620212
 30
0.0
 10
0.282242
 20
14.615730
 30
0.0
 10
0.295245
 20
14.610343
 30
0.0
 10
0.308552
 20
14.604944
 30
0.0
 10
0.322202
 20
14.599522
 30
0.0
 10
0.336232
 20
14.594064
 30
0.0
 10
0.350679
 20
14.588558
 30
0.0
 10
0.365581
 20
14.582993
 30
0.0
 10
0.380973
 20
14.577354
 30
0.0
 10
0.396895
 20
14.571633
 30
0.0
 10
0.430126
 20
14.559994
 30
0.0
 10
0.464911
 20
14.548169
 30
0.0
 10
0.501081
 20
14.536180
 30
0.0
 10
0.538466
 20
14.524053
 30
0.0
 10
0.576895
 20
14.511811
 30
0.0
 10
0.616200
 20
14.499475
 30
0.0
 10
0.656210
 20
14.487071
 30
0.0
 10
0.696756
 20
14.474619
 30
0.0
 10
0.773915
 20
14.450120
 30
0.0
 10
0.855094
 20
14.422750
 30
0.0
 10
0.937024
 20
14.393822
 30
0.0
 10
1.016438
 20
14.364650
 30
0.0
 10
1.090067
 20
14.336546
 30
0.0
 10
1.154643
 20
14.310825
 30
0.0
 10
1.206897
 20
14.288797
 30
0.0
 10
1.243562
 20
14.271778
 30
0.0
 10
1.335445
 20
14.218704
 30
0.0
 10
1.437785
 20
14.148338
 30
0.0
 10
1.546088
 20
14.064465
 30
0.0
 10
1.655857
 20
13.970873
 30
0.0
 10
1.762596
 20
13.871348
 30
0.0
 10
1.861809
 20
13.769676
 30
0.0
 10
1.949000
 20
13.669645
 30
0.0
 10
2.019673
 20
13.575042
 30
0.0
 10
2.214656
 20
13.247852
 30
0.0
 10
2.353865
 20
12.927894
 30
0.0
 10
2.437332
 20
12.612780
 30
0.0
 10
2.465090
 20
12.300119
 30
0.0
 10
2.437170
 20
11.987522
 30
0.0
 10
2.353606
 20
11.672600
 30
0.0
 10
2.214430
 20
11.352963
 30
0.0
 10
2.019673
 20
11.026222
 30
0.0
 10
1.908765
 20
10.880854
 30
0.0
 10
1.776071
 20
10.740904
 30
0.0
 10
1.624390
 20
10.608366
 30
0.0
 10
1.456519
 20
10.485235
 30
0.0
 10
1.275257
 20
10.373503
 30
0.0
 10
1.083404
 20
10.275164
 30
0.0
 10
0.883758
 20
10.192211
 30
0.0
 10
0.679117
 20
10.126639
 30
0.0
 10
0.648063
 20
10.117797
 30
0.0
 10
0.617343
 20
10.108393
 30
0.0
 10
0.586973
 20
10.098555
 30
0.0
 10
0.556972
 20
10.088409
 30
0.0
 10
0.527356
 20
10.078080
 30
0.0
 10
0.498142
 20
10.067694
 30
0.0
 10
0.469349
 20
10.057379
 30
0.0
 10
0.440992
 20
10.047261
 30
0.0
 10
0.413892
 20
10.037798
 30
0.0
 10
0.388464
 20
10.028996
 30
0.0
 10
0.364122
 20
10.020300
 30
0.0
 10
0.340278
 20
10.011159
 30
0.0
 10
0.316346
 20
10.001019
 30
0.0
 10
0.291738
 20
9.989326
 30
0.0
 10
0.265866
 20
9.975526
 30
0.0
 10
0.238145
 20
9.959067
 30
0.0
 10
0.237043
 20
9.959081
 30
0.0
 10
0.235940
 20
9.959092
 30
0.0
 10
0.234838
 20
9.959098
 30
0.0
 10
0.233736
 20
9.959100
 30
0.0
 10
0.232633
 20
9.959098
 30
0.0
 10
0.231531
 20
9.959092
 30
0.0
 10
0.230429
 20
9.959081
 30
0.0
 10
0.229326
 20
9.959067
 30
0.0
 10
0.217200
 20
9.951351
 30
0.0
 10
0.205073
 20
9.943635
 30
0.0
 10
0.192946
 20
9.935919
 30
0.0
 10
0.180819
 20
9.928203
 30
0.0
 10
0.168693
 20
9.920487
 30
0.0
 10
0.156566
 20
9.912771
 30
0.0
 10
0.144439
 20
9.905055
 30
0.0
 10
0.132312
 20
9.897333
 30
0.0
 10
0.103107
 20
9.875495
 30
0.0
 10
0.076988
 20
9.850081
 30
0.0
 10
0.054222
 20
9.821589
 30
0.0
 10
0.035076
 20
9.790518
 30
0.0
 10
0.019816
 20
9.757364
 30
0.0
 10
0.008709
 20
9.722626
 30
0.0
 10
0.002021
 20
9.686802
 30
0.0
 10
0.000020
 20
9.650390
 30
0.0
 10
0.001124
 20
9.221544
 30
0.0
 10
0.002227
 20
8.792699
 30
0.0
 10
0.003331
 20
8.363853
 30
0.0
 10
0.004434
 20
7.935008
 30
0.0
 10
0.005538
 20
7.506162
 30
0.0
 10
0.006641
 20
7.077317
 30
0.0
 10
0.007745
 20
6.648471
 30
0.0
 10
0.008840
 20
6.219625
 30
0.0
 10
0.011045
 20
5.791882
 30
0.0
 10
0.013250
 20
5.364139
 30
0.0
 10
0.015455
 20
4.936396
 30
0.0
 10
0.017660
 20
4.508653
 30
0.0
 10
0.019865
 20
4.080910
 30
0.0
 10
0.022070
 20
3.653167
 30
0.0
 10
0.024275
 20
3.225424
 30
0.0
 10
0.026480
 20
2.797681
 30
0.0
 10
0.026918
 20
2.779313
 30
0.0
 10
0.028527
 20
2.761011
 30
0.0
 10
0.031289
 20
2.742848
 30
0.0
 10
0.035184
 20
2.724893
 30
0.0
 10
0.040197
 20
2.707214
 30
0.0
 10
0.046308
 20
2.689889
 30
0.0
 10
0.053501
 20
2.672983
 30
0.0
 10
0.061758
 20
2.656569
 30
0.0
 10
0.073884
 20
2.634519
 30
0.0
 10
0.086011
 20
2.612469
 30
0.0
 10
0.098138
 20
2.590419
 30
0.0
 10
0.110265
 20
2.568369
 30
0.0
 10
0.122391
 20
2.546319
 30
0.0
 10
0.134518
 20
2.524269
 30
0.0
 10
0.146645
 20
2.502219
 30
0.0
 10
0.158771
 20
2.480169
 30
0.0
 10
0.189860
 20
2.427984
 30
0.0
 10
0.222837
 20
2.377866
 30
0.0
 10
0.257829
 20
2.329780
 30
0.0
 10
0.294963
 20
2.283690
 30
0.0
 10
0.334365
 20
2.239560
 30
0.0
 10
0.376163
 20
2.197355
 30
0.0
 10
0.420482
 20
2.157048
 30
0.0
 10
0.467451
 20
2.118583
 30
0.0
 10
0.467451
 20
2.117483
 30
0.0
 10
0.467451
 20
2.116382
 30
0.0
 10
0.467451
 20
2.115281
 30
0.0
 10
0.467451
 20
2.114181
 30
0.0
 10
0.467451
 20
2.113080
 30
0.0
 10
0.467451
 20
2.111979
 30
0.0
 10
0.467451
 20
2.110879
 30
0.0
 10
0.467451
 20
2.109778
 30
0.0
 10
0.468215
 20
2.109468
 30
0.0
 10
0.469268
 20
2.109422
 30
0.0
 10
0.470514
 20
2.109547
 30
0.0
 10
0.471857
 20
2.109757
 30
0.0
 10
0.473200
 20
2.109968
 30
0.0
 10
0.474447
 20
2.110097
 30
0.0
 10
0.475503
 20
2.110058
 30
0.0
 10
0.476270
 20
2.109775
 30
0.0
 10
0.491704
 20
2.096548
 30
0.0
 10
0.507139
 20
2.083320
 30
0.0
 10
0.522573
 20
2.070092
 30
0.0
 10
0.538007
 20
2.056864
 30
0.0
 10
0.553441
 20
2.043637
 30
0.0
 10
0.568875
 20
2.030409
 30
0.0
 10
0.584309
 20
2.017181
 30
0.0
 10
0.599743
 20
2.003953
 30
0.0
 10
0.619977
 20
1.989489
 30
0.0
 10
0.641388
 20
1.976837
 30
0.0
 10
0.663804
 20
1.966057
 30
0.0
 10
0.687053
 20
1.957203
 30
0.0
 10
0.710964
 20
1.950337
 30
0.0
 10
0.735365
 20
1.945511
 30
0.0
 10
0.760084
 20
1.942773
 30
0.0
 10
0.784951
 20
1.942209
 30
0.0
 10
1.254586
 20
1.940007
 30
0.0
 10
1.724222
 20
1.937806
 30
0.0
 10
2.193857
 20
1.935605
 30
0.0
 10
2.663493
 20
1.933403
 30
0.0
 10
3.133128
 20
1.931202
 30
0.0
 10
3.602763
 20
1.929001
 30
0.0
 10
4.072399
 20
1.926799
 30
0.0
 10
4.542034
 20
1.924598
 30
0.0
 10
4.992928
 20
1.922397
 30
0.0
 10
5.443822
 20
1.920195
 30
0.0
 10
5.894717
 20
1.917994
 30
0.0
 10
6.345611
 20
1.915793
 30
0.0
 10
6.796505
 20
1.913591
 30
0.0
 10
7.247399
 20
1.911390
 30
0.0
 10
7.698293
 20
1.909189
 30
0.0
 10
8.149187
 20
1.906987
 30
0.0
 10
8.145208
 20
1.911768
 30
0.0
 10
8.144333
 20
1.913095
 30
0.0
 10
8.146054
 20
1.911063
 30
0.0
 10
8.149856
 20
1.905768
 30
0.0
 10
8.155229
 20
1.897319
 30
0.0
 10
8.161658
 20
1.885821
 30
0.0
 10
8.168635
 20
1.871374
 30
0.0
 10
8.175642
 20
1.854082
 30
0.0
 10
8.183564
 20
1.831914
 30
0.0
 10
8.191661
 20
1.808128
 30
0.0
 10
8.199818
 20
1.783078
 30
0.0
 10
8.207915
 20
1.757116
 30
0.0
 10
8.215837
 20
1.730599
 30
0.0
 10
8.223465
 20
1.703878
 30
0.0
 10
8.230684
 20
1.677307
 30
0.0
 10
8.237376
 20
1.651238
 30
0.0
 10
8.320791
 20
1.379083
 30
0.0
 10
8.429841
 20
1.131542
 30
0.0
 10
8.565148
 20
0.907626
 30
0.0
 10
8.727334
 20
0.706347
 30
0.0
 10
8.917022
 20
0.526717
 30
0.0
 10
9.134831
 20
0.367747
 30
0.0
 10
9.381386
 20
0.228449
 30
0.0
 10
9.657306
 20
0.107835
 30
0.0
 10
9.740549
 20
0.078029
 30
0.0
 10
9.822150
 20
0.053368
 30
0.0
 10
9.903636
 20
0.033649
 30
0.0
 10
9.986536
 20
0.018666
 30
0.0
 10
10.072380
 20
0.008213
 30
0.0
 10
10.162697
 20
0.002089
 30
0.0
 10
10.259014
 20
0.000085
 30
0.0
 10
10.362862
 20
0.002004
 30
0.0
 10
10.474202
 20
0.007843
 30
0.0
 10
10.576750
 20
0.017831
 30
0.0
 10
10.673957
 20
0.032995
 30
0.0
 10
10.769276
 20
0.054365
 30
0.0
 10
10.866158
 20
0.082969
 30
0.0
 10
10.968057
 20
0.119839
 30
0.0
 10
11.078423
 20
0.166004
 30
0.0
 10
11.200709
 20
0.222493
 30
0.0
 10
11.288916
 20
0.265734
 30
0.0
 10
11.376031
 20
0.310713
 30
0.0
 10
11.461181
 20
0.357472
 30
0.0
 10
11.543492
 20
0.406050
 30
0.0
 10
11.622092
 20
0.456489
 30
0.0
 10
11.696107
 20
0.508827
 30
0.0
 10
11.764664
 20
0.563107
 30
0.0
 10
11.826890
 20
0.619368
 30
0.0
 10
11.928530
 20
0.729077
 30
0.0
 10
12.023463
 20
0.852507
 30
0.0
 10
12.110916
 20
0.987283
 30
0.0
 10
12.190117
 20
1.131031
 30
0.0
 10
12.260295
 20
1.281377
 30
0.0
 10
12.320678
 20
1.435946
 30
0.0
 10
12.370495
 20
1.592364
 30
0.0
 10
12.408973
 20
1.748257
 30
0.0
 10
12.412478
 20
1.763429
 30
0.0
 10
12.416469
 20
1.778271
 30
0.0
 10
12.420829
 20
1.792831
 30
0.0
 10
12.425446
 20
1.807151
 30
0.0
 10
12.430210
 20
1.821273
 30
0.0
 10
12.435008
 20
1.835246
 30
0.0
 10
12.439724
 20
1.849112
 30
0.0
 10
12.444251
 20
1.862913
 30
0.0
 10
12.455469
 20
1.863872
 30
0.0
 10
12.465849
 20
1.864973
 30
0.0
 10
12.475942
 20
1.866158
 30
0.0
 10
12.486293
 20
1.867372
 30
0.0
 10
12.497455
 20
1.868585
 30
0.0
 10
12.509972
 20
1.869742
 30
0.0
 10
12.524391
 20
1.870815
 30
0.0
 10
12.541262
 20
1.871746
 30
0.0
 10
12.620943
 20
1.875234
 30
0.0
 10
12.714605
 20
1.878830
 30
0.0
 10
12.823090
 20
1.882454
 30
0.0
 10
12.947236
 20
1.886027
 30
0.0
 10
13.087883
 20
1.889467
 30
0.0
 10
13.245872
 20
1.892698
 30
0.0
 10
13.422043
 20
1.895636
 30
0.0
 10
13.617234
 20
1.898204
 30
0.0
 10
14.068119
 20
1.902562
 30
0.0
 10
14.605741
 20
1.906313
 30
0.0
 10
15.237446
 20
1.909609
 30
0.0
 10
15.970577
 20
1.912603
 30
0.0
 10
16.812478
 20
1.915454
 30
0.0
 10
17.770494
 20
1.918310
 30
0.0
 10
18.851969
 20
1.921327
 30
0.0
 10
20.064248
 20
1.924660
 30
0.0
 10
21.084132
 20
1.927581
 30
0.0
 10
22.023183
 20
1.930508
 30
0.0
 10
22.883528
 20
1.933493
 30
0.0
 10
23.667294
 20
1.936589
 30
0.0
 10
24.376609
 20
1.939846
 30
0.0
 10
25.013598
 20
1.943318
 30
0.0
 10
25.580389
 20
1.947057
 30
0.0
 10
26.079109
 20
1.951115
 30
0.0
 10
26.303557
 20
1.953204
 30
0.0
 10
26.511726
 20
1.955264
 30
0.0
 10
26.703945
 20
1.957324
 30
0.0
 10
26.880543
 20
1.959413
 30
0.0
 10
27.041850
 20
1.961558
 30
0.0
 10
27.188192
 20
1.963815
 30
0.0
 10
27.319901
 20
1.966214
 30
0.0
 10
27.437304
 20
1.968783
 30
0.0
 10
27.490757
 20
1.970391
 30
0.0
 10
27.540796
 20
1.972451
 30
0.0
 10
27.587476
 20
1.974822
 30
0.0
 10
27.630852
 20
1.977362
 30
0.0
 10
27.670981
 20
1.979930
 30
0.0
 10
27.707919
 20
1.982386
 30
0.0
 10
27.741721
 20
1.984615
 30
0.0
 10
27.772442
 20
1.986450
 30
0.0
 10
27.786604
 20
1.987296
 30
0.0
 10
27.799968
 20
1.988256
 30
0.0
 10
27.812639
 20
1.989300
 30
0.0
 10
27.824730
 20
1.990429
 30
0.0
 10
27.836346
 20
1.991614
 30
0.0
 10
27.847601
 20
1.992828
 30
0.0
 10
27.858602
 20
1.994041
 30
0.0
 10
27.869459
 20
1.995255
 30
0.0
 10
27.875027
 20
1.995537
 30
0.0
 10
27.880909
 20
1.995330
 30
0.0
 10
27.887095
 20
1.994822
 30
0.0
 10
27.893581
 20
1.994258
 30
0.0
 10
27.900357
 20
1.993806
 30
0.0
 10
27.907421
 20
1.993683
 30
0.0
 10
27.914764
 20
1.994106
 30
0.0
 10
27.922379
 20
1.995263
 30
0.0
 10
27.926019
 20
1.996336
 30
0.0
 10
27.929366
 20
1.997916
 30
0.0
 10
27.932677
 20
1.999892
 30
0.0
 10
27.936207
 20
2.002206
 30
0.0
 10
27.940212
 20
2.004746
 30
0.0
 10
27.944951
 20
2.007427
 30
0.0
 10
27.950680
 20
2.010165
 30
0.0
 10
27.957656
 20
2.012874
 30
0.0
 10
27.961766
 20
2.014285
 30
0.0
 10
27.966371
 20
2.015837
 30
0.0
 10
27.971429
 20
2.017587
 30
0.0
 10
27.976887
 20
2.019563
 30
0.0
 10
27.982698
 20
2.021821
 30
0.0
 10
27.988811
 20
2.024361
 30
0.0
 10
27.995181
 20
2.027248
 30
0.0
 10
28.001756
 20
2.030505
 30
0.0
 10
28.005324
 20
2.032254
 30
0.0
 10
28.009303
 20
2.034032
 30
0.0
 10
28.013610
 20
2.035923
 30
0.0
 10
28.018156
 20
2.037927
 30
0.0
 10
28.022858
 20
2.040100
 30
0.0
 10
28.027628
 20
2.042499
 30
0.0
 10
28.032380
 20
2.045152
 30
0.0
 10
28.037031
 20
2.048121
 30
0.0
 10
28.042041
 20
2.052032
 30
0.0
 10
28.047666
 20
2.057141
 30
0.0
 10
28.053513
 20
2.062921
 30
0.0
 10
28.059189
 20
2.068844
 30
0.0
 10
28.064300
 20
2.074382
 30
0.0
 10
28.068454
 20
2.079004
 30
0.0
 10
28.071248
 20
2.082185
 30
0.0
 10
28.072292
 20
2.083399
 30
0.0
 10
28.100133
 20
2.112608
 30
0.0
 10
28.120151
 20
2.135764
 30
0.0
 10
28.133856
 20
2.154083
 30
0.0
 10
28.142757
 20
2.168782
 30
0.0
 10
28.148362
 20
2.181075
 30
0.0
 10
28.152181
 20
2.192181
 30
0.0
 10
28.155720
 20
2.203314
 30
0.0
 10
28.160489
 20
2.215693
 30
0.0
 10
28.166258
 20
2.229457
 30
0.0
 10
28.171826
 20
2.243870
 30
0.0
 10
28.177259
 20
2.258847
 30
0.0
 10
28.182619
 20
2.274302
 30
0.0
 10
28.187969
 20
2.290148
 30
0.0
 10
28.193371
 20
2.306300
 30
0.0
 10
28.198889
 20
2.322669
 30
0.0
 10
28.204584
 20
2.339168
 30
0.0
 10
28.216463
 20
2.373083
 30
0.0
 10
28.228756
 20
2.408600
 30
0.0
 10
28.241295
 20
2.445585
 30
0.0
 10
28.253905
 20
2.483905
 30
0.0
 10
28.266413
 20
2.523425
 30
0.0
 10
28.278647
 20
2.564012
 30
0.0
 10
28.290433
 20
2.605530
 30
0.0
 10
28.301601
 20
2.647848
 30
0.0
 10
28.411567
 20
3.006903
 30
0.0
 10
28.549369
 20
3.317392
 30
0.0
 10
28.718765
 20
3.582544
 30
0.0
 10
28.923520
 20
3.805585
 30
0.0
 10
29.167391
 20
3.989742
 30
0.0
 10
29.454140
 20
4.138242
 30
0.0
 10
29.787532
 20
4.254313
 30
0.0
 10
30.171323
 20
4.341182
 30
0.0
 10
30.338717
 20
4.356986
 30
0.0
 10
30.528080
 20
4.350850
 30
0.0
 10
30.730969
 20
4.324872
 30
0.0
 10
30.938948
 20
4.281149
 30
0.0
 10
31.143576
 20
4.221778
 30
0.0
 10
31.336418
 20
4.148859
 30
0.0
 10
31.509036
 20
4.064488
 30
0.0
 10
31.653006
 20
3.970667
 30
0.0
 10
31.826257
 20
3.827602
 30
0.0
 10
31.980153
 20
3.679701
 30
0.0
 10
32.115845
 20
3.525253
 30
0.0
 10
32.234480
 20
3.362542
 30
0.0
 10
32.337206
 20
3.189858
 30
0.0
 10
32.425172
 20
3.005487
 30
0.0
 10
32.499523
 20
2.807716
 30
0.0
 10
32.561409
 20
2.594833
 30
0.0
 10
32.571964
 20
2.555123
 30
0.0
 10
32.583168
 20
2.516370
 30
0.0
 10
32.594937
 20
2.478572
 30
0.0
 10
32.607157
 20
2.441725
 30
0.0
 10
32.619716
 20
2.405826
 30
0.0
 10
32.632501
 20
2.370873
 30
0.0
 10
32.645427
 20
2.336863
 30
0.0
 10
32.658381
 20
2.303792
 30
0.0
 10
32.664702
 20
2.287643
 30
0.0
 10
32.670827
 20
2.271774
 30
0.0
 10
32.676894
 20
2.256147
 30
0.0
 10
32.683047
 20
2.240726
 30
0.0
 10
32.689425
 20
2.225469
 30
0.0
 10
32.696170
 20
2.210342
 30
0.0
 10
32.703423
 20
2.195305
 30
0.0
 10
32.711326
 20
2.180319
 30
0.0
 10
32.719200
 20
2.165305
 30
0.0
 10
32.726904
 20
2.150043
 30
0.0
 10
32.735456
 20
2.134280
 30
0.0
 10
32.745841
 20
2.117768
 30
0.0
 10
32.759078
 20
2.100253
 30
0.0
 10
32.776180
 20
2.081488
 30
0.0
 10
32.798137
 20
2.061224
 30
0.0
 10
32.825964
 20
2.039208
 30
0.0
 10
32.864894
 20
2.012205
 30
0.0
 10
32.896777
 20
1.993497
 30
0.0
 10
32.922882
 20
1.981533
 30
0.0
 10
32.944472
 20
1.974766
 30
0.0
 10
32.962845
 20
1.971644
 30
0.0
 10
32.979242
 20
1.970628
 30
0.0
 10
32.994933
 20
1.970149
 30
0.0
 10
33.011189
 20
1.968653
 30
0.0
 10
33.028405
 20
1.966141
 30
0.0
 10
33.046185
 20
1.963629
 30
0.0
 10
33.064614
 20
1.961146
 30
0.0
 10
33.083805
 20
1.958747
 30
0.0
 10
33.103843
 20
1.956489
 30
0.0
 10
33.124812
 20
1.954429
 30
0.0
 10
33.146825
 20
1.952594
 30
0.0
 10
33.169968
 20
1.951042
 30
0.0
 10
33.220056
 20
1.948276
 30
0.0
 10
33.275620
 20
1.945595
 30
0.0
 10
33.337001
 20
1.943055
 30
0.0
 10
33.404548
 20
1.940685
 30
0.0
 10
33.478600
 20
1.938483
 30
0.0
 10
33.559502
 20
1.936536
 30
0.0
 10
33.647598
 20
1.934843
 30
0.0
 10
33.743232
 20
1.933431
 30
0.0
 10
33.958274
 20
1.931315
 30
0.0
 10
34.206697
 20
1.929932
 30
0.0
 10
34.490542
 20
1.929226
 30
0.0
 10
34.811846
 20
1.929135
 30
0.0
 10
35.172659
 20
1.929586
 30
0.0
 10
35.575015
 20
1.930489
 30
0.0
 10
36.020962
 20
1.931787
 30
0.0
 10
36.512537
 20
1.933424
 30
0.0
 10
36.940279
 20
1.934525
 30
0.0
 10
37.368023
 20
1.935626
 30
0.0
 10
37.795765
 20
1.936726
 30
0.0
 10
38.223509
 20
1.937827
 30
0.0
 10
38.651251
 20
1.938928
 30
0.0
 10
39.078995
 20
1.940028
 30
0.0
 10
39.506737
 20
1.941129
 30
0.0
 10
39.934482
 20
1.942230
 30
0.0
 10
39.959345
 20
1.942794
 30
0.0
 10
39.984068
 20
1.945532
 30
0.0
 10
40.008480
 20
1.950358
 30
0.0
 10
40.032384
 20
1.957224
 30
0.0
 10
40.055640
 20
1.966077
 30
0.0
 10
40.078048
 20
1.976858
 30
0.0
 10
40.099469
 20
1.989510
 30
0.0
 10
40.119704
 20
2.003974
 30
0.0
 10
40.135142
 20
2.017202
 30
0.0
 10
40.150579
 20
2.030430
 30
0.0
 10
40.166017
 20
2.043658
 30
0.0
 10
40.181454
 20
2.056885
 30
0.0
 10
40.196892
 20
2.070113
 30
0.0
 10
40.212329
 20
2.083341
 30
0.0
 10
40.227767
 20
2.096569
 30
0.0
 10
40.243204
 20
2.109796
 30
0.0
 10
40.244333
 20
2.110812
 30
0.0
 10
40.245462
 20
2.111913
 30
0.0
 10
40.246591
 20
2.113042
 30
0.0
 10
40.247720
 20
2.114199
 30
0.0
 10
40.248849
 20
2.115356
 30
0.0
 10
40.249978
 20
2.116485
 30
0.0
 10
40.251107
 20
2.117586
 30
0.0
 10
40.252236
 20
2.118602
 30
0.0
 10
40.299251
 20
2.157085
 30
0.0
 10
40.343594
 20
2.197414
 30
0.0
 10
40.385396
 20
2.239624
 30
0.0
 10
40.424792
 20
2.283754
 30
0.0
 10
40.461907
 20
2.329839
 30
0.0
 10
40.496880
 20
2.377917
 30
0.0
 10
40.529838
 20
2.428024
 30
0.0
 10
40.560916
 20
2.480199
 30
0.0
 10
40.573052
 20
2.502249
 30
0.0
 10
40.585187
 20
2.524299
 30
0.0
 10
40.597323
 20
2.546349
 30
0.0
 10
40.609458
 20
2.568399
 30
0.0
 10
40.621594
 20
2.590449
 30
0.0
 10
40.633729
 20
2.612499
 30
0.0
 10
40.645865
 20
2.634549
 30
0.0
 10
40.658001
 20
2.656599
 30
0.0
 10
40.666241
 20
2.673013
 30
0.0
 10
40.673438
 20
2.689918
 30
0.0
 10
40.679562
 20
2.707244
 30
0.0
 10
40.684586
 20
2.724922
 30
0.0
 10
40.688481
 20
2.742877
 30
0.0
 10
40.691303
 20
2.761041
 30
0.0
 10
40.692996
 20
2.779343
 30
0.0
 10
40.693561
 20
2.797710
 30
0.0
 10
40.694689
 20
3.265141
 30
0.0
 10
40.695818
 20
3.732571
 30
0.0
 10
40.696947
 20
4.200002
 30
0.0
 10
40.698076
 20
4.667432
 30
0.0
 10
40.699205
 20
5.134863
 30
0.0
 10
40.700334
 20
5.602293
 30
0.0
 10
40.701463
 20
6.069724
 30
0.0
 10
40.702592
 20
6.537155
 30
0.0
 10
40.704285
 20
7.287019
 30
0.0
 10
40.705696
 20
7.934124
 30
0.0
 10
40.707389
 20
8.485250
 30
0.0
 10
40.710212
 20
8.947176
 30
0.0
 10
40.714812
 20
9.326681
 30
0.0
 10
40.721980
 20
9.630547
 30
0.0
 10
40.732451
 20
9.865551
 30
0.0
 10
40.746929
 20
10.038474
 30
0.0
 10
40.750457
 20
10.066679
 30
0.0
 10
40.753984
 20
10.091131
 30
0.0
 10
40.757484
 20
10.112196
 30
0.0
 10
40.760927
 20
10.130241
 30
0.0
 10
40.764257
 20
10.145634
 30
0.0
 10
40.767475
 20
10.158743
 30
0.0
 10
40.770523
 20
10.169939
 30
0.0
 10
40.773373
 20
10.179588
 30
0.0
 10
40.771397
 20
10.175123
 30
0.0
 10
40.774615
 20
10.172696
 30
0.0
 10
40.783759
 20
10.172414
 30
0.0
 10
40.799479
 20
10.174333
 30
0.0
 10
40.822423
 20
10.178569
 30
0.0
 10
40.853239
 20
10.185207
 30
0.0
 10
40.892575
 20
10.194337
 30
0.0
 10
40.941078
 20
10.206049
 30
0.0
 10
41.152539
 20
10.268142
 30
0.0
 10
41.356853
 20
10.348945
 30
0.0
 10
41.551643
 20
10.447400
 30
0.0
 10
41.734520
 20
10.562446
 30
0.0
 10
41.903106
 20
10.693026
 30
0.0
 10
42.055015
 20
10.838078
 30
0.0
 10
42.187865
 20
10.996546
 30
0.0
 10
42.299272
 20
11.167369
 30
0.0
 10
42.426803
 20
11.433526
 30
0.0
 10
42.517896
 20
11.713452
 30
0.0
 10
42.572554
 20
12.002560
 30
0.0
 10
42.590785
 20
12.296257
 30
0.0
 10
42.572554
 20
12.589954
 30
0.0
 10
42.517899
 20
12.879061
 30
0.0
 10
42.426806
 20
13.158988
 30
0.0
 10
42.298033
 20
13.425111
 30
0.0
 10
42.181329
 20
13.603010
 30
0.0
 10
42.040675
 20
13.768966
 30
0.0
 10
41.879365
 20
13.921175
 30
0.0
 10
41.700687
 20
14.057834
 30
0.0
 10
41.507933
 20
14.177138
 30
0.0
 10
41.304388
 20
14.277284
 30
0.0
 10
41.093348
 20
14.356469
 30
0.0
 10
40.878103
 20
14.412889
 30
0.0
 10
40.860746
 20
14.416600
 30
0.0
 10
40.843390
 20
14.420594
 30
0.0
 10
40.826146
 20
14.424827
 30
0.0
 10
40.809128
 20
14.429261
 30
0.0
 10
40.792448
 20
14.433852
 30
0.0
 10
40.776249
 20
14.438563
 30
0.0
 10
40.760670
 20
14.443346
 30
0.0
 10
40.745797
 20
14.448164
 30
0.0
 10
40.742552
 20
14.486128
 30
0.0
 10
40.739024
 20
14.530978
 30
0.0
 10
40.735355
 20
14.583138
 30
0.0
 10
40.731686
 20
14.643036
 30
0.0
 10
40.728130
 20
14.711096
 30
0.0
 10
40.724800
 20
14.787744
 30
0.0
 10
40.721836
 20
14.873407
 30
0.0
 10
40.719296
 20
14.968511
 30
0.0
 10
40.715317
 20
15.187955
 30
0.0
 10
40.712128
 20
15.448633
 30
0.0
 10
40.709588
 20
15.753857
 30
0.0
 10
40.707612
 20
16.106941
 30
0.0
 10
40.705919
 20
16.511198
 30
0.0
 10
40.704508
 20
16.969941
 30
0.0
 10
40.703097
 20
17.486482
 30
0.0
 10
40.701686
 20
18.064136
 30
0.0
 10
40.700557
 20
18.531567
 30
0.0
 10
40.699428
 20
18.998997
 30
0.0
 10
40.698299
 20
19.466428
 30
0.0
 10
40.697170
 20
19.933858
 30
0.0
 10
40.696041
 20
20.401289
 30
0.0
 10
40.694912
 20
20.868719
 30
0.0
 10
40.693784
 20
21.336150
 30
0.0
 10
40.692655
 20
21.803580
 30
0.0
 10
40.691808
 20
21.823330
 30
0.0
 10
40.689550
 20
21.842966
 30
0.0
 10
40.685910
 20
21.862402
 30
0.0
 10
40.680971
 20
21.881549
 30
0.0
 10
40.674762
 20
21.900322
 30
0.0
 10
40.667311
 20
21.918631
 30
0.0
 10
40.658619
 20
21.936390
 30
0.0
 10
40.648840
 20
21.953514
 30
0.0
 10
40.634503
 20
21.977767
 30
0.0
 10
40.620166
 20
22.002021
 30
0.0
 10
40.605829
 20
22.026274
 30
0.0
 10
40.591492
 20
22.050527
 30
0.0
 10
40.577155
 20
22.074781
 30
0.0
 10
40.562818
 20
22.099034
 30
0.0
 10
40.548481
 20
22.123287
 30
0.0
 10
40.534145
 20
22.147540
 30
0.0
 10
40.518792
 20
22.176271
 30
0.0
 10
40.503552
 20
22.207645
 30
0.0
 10
40.486957
 20
22.241433
 30
0.0
 10
40.467484
 20
22.277408
 30
0.0
 10
40.443664
 20
22.315339
 30
0.0
 10
40.414079
 20
22.354999
 30
0.0
 10
40.377113
 20
22.396157
 30
0.0
 10
40.331340
 20
22.438583
 30
0.0
 10
40.279462
 20
22.478130
 30
0.0
 10
40.224753
 20
22.511271
 30
0.0
 10
40.166595
 20
22.538708
 30
0.0
 10
40.104360
 20
22.561146
 30
0.0
 10
40.037425
 20
22.579287
 30
0.0
 10
39.965165
 20
22.593836
 30
0.0
 10
39.886955
 20
22.605497
 30
0.0
 10
39.802173
 20
22.614972
 30
0.0
 10
39.605202
 20
22.629790
 30
0.0
 10
39.362301
 20
22.640318
 30
0.0
 10
39.065835
 20
22.647372
 30
0.0
 10
38.708161
 20
22.651767
 30
0.0
 10
38.281633
 20
22.654318
 30
0.0
 10
37.778614
 20
22.655842
 30
0.0
 10
37.191457
 20
22.657155
 30
0.0
 10
36.512520
 20
22.659068
 30
0.0
 10
36.020946
 20
22.660646
 30
0.0
 10
35.574998
 20
22.661924
 30
0.0
 10
35.172639
 20
22.662824
 30
0.0
 10
34.811824
 20
22.663273
 30
0.0
 10
34.490514
 20
22.663197
 30
0.0
 10
34.206671
 20
22.662520
 30
0.0
 10
33.958251
 20
22.661168
 30
0.0
 10
33.743215
 20
22.659065
 30
0.0
 10
33.647584
 20
22.657657
 30
0.0
 10
33.559485
 20
22.655952
 30
0.0
 10
33.478580
 20
22.653988
 30
0.0
 10
33.404523
 20
22.651795
 30
0.0
 10
33.336973
 20
22.649411
 30
0.0
 10
33.275589
 20
22.646865
 30
0.0
 10
33.220028
 20
22.644192
 30
0.0
 10
33.169951
 20
22.641429
 30
0.0
 10
33.147204
 20
22.639871
 30
0.0
 10
33.126206
 20
22.638031
 30
0.0
 10
33.106648
 20
22.635957
 30
0.0
 10
33.088219
 20
22.633699
 30
0.0
 10
33.070637
 20
22.631303
 30
0.0
 10
33.053619
 20
22.628820
 30
0.0
 10
33.036855
 20
22.626297
 30
0.0
 10
33.020034
 20
22.623785
 30
0.0
 10
33.003411
 20
22.622678
 30
0.0
 10
32.986732
 20
22.623178
 30
0.0
 10
32.968924
 20
22.623536
 30
0.0
 10
32.948943
 20
22.622007
 30
0.0
 10
32.925716
 20
22.616840
 30
0.0
 10
32.898199
 20
22.606290
 30
0.0
 10
32.865303
 20
22.588609
 30
0.0
 10
32.825978
 20
22.562050
 30
0.0
 10
32.825964
 20
22.560946
 30
0.0
 10
32.825953
 20
22.559843
 30
0.0
 10
32.825947
 20
22.558739
 30
0.0
 10
32.825944
 20
22.557636
 30
0.0
 10
32.825947
 20
22.556532
 30
0.0
 10
32.825953
 20
22.555429
 30
0.0
 10
32.825964
 20
22.554325
 30
0.0
 10
32.825978
 20
22.553222
 30
0.0
 10
32.799703
 20
22.532663
 30
0.0
 10
32.778480
 20
22.513841
 30
0.0
 10
32.761519
 20
22.496462
 30
0.0
 10
32.747972
 20
22.480232
 30
0.0
 10
32.737022
 20
22.464858
 30
0.0
 10
32.727821
 20
22.450045
 30
0.0
 10
32.719552
 20
22.435501
 30
0.0
 10
32.711368
 20
22.420930
 30
0.0
 10
32.703381
 20
22.406140
 30
0.0
 10
32.696100
 20
22.391139
 30
0.0
 10
32.689383
 20
22.375942
 30
0.0
 10
32.683061
 20
22.360561
 30
0.0
 10
32.676965
 20
22.345009
 30
0.0
 10
32.670954
 20
22.329299
 30
0.0
 10
32.664829
 20
22.313444
 30
0.0
 10
32.658451
 20
22.297458
 30
0.0
 10
32.645356
 20
22.264816
 30
0.0
 10
32.632374
 20
22.231089
 30
0.0
 10
32.619589
 20
22.196285
 30
0.0
 10
32.607087
 20
22.160414
 30
0.0
 10
32.594951
 20
22.123483
 30
0.0
 10
32.583239
 20
22.085501
 30
0.0
 10
32.572035
 20
22.046476
 30
0.0
 10
32.561423
 20
22.006416
 30
0.0
 10
32.499537
 20
21.793533
 30
0.0
 10
32.425186
 20
21.595763
 30
0.0
 10
32.337220
 20
21.411391
 30
0.0
 10
32.234494
 20
21.238707
 30
0.0
 10
32.115859
 20
21.075997
 30
0.0
 10
31.980167
 20
20.921548
 30
0.0
 10
31.826271
 20
20.773647
 30
0.0
 10
31.653020
 20
20.630583
 30
0.0
 10
31.557262
 20
20.561380
 30
0.0
 10
31.459492
 20
20.500757
 30
0.0
 10
31.356439
 20
20.447696
 30
0.0
 10
31.244840
 20
20.401178
 30
0.0
 10
31.121424
 20
20.360185
 30
0.0
 10
30.982923
 20
20.323698
 30
0.0
 10
30.826073
 20
20.290698
 30
0.0
 10
30.647604
 20
20.260166
 30
0.0
 10
30.483187
 20
20.246131
 30
0.0
 10
30.301086
 20
20.251045
 30
0.0
 10
30.107487
 20
20.273738
 30
0.0
 10
29.908577
 20
20.313041
 30
0.0
 10
29.710544
 20
20.367782
 30
0.0
 10
29.519576
 20
20.436793
 30
0.0
 10
29.341857
 20
20.518903
 30
0.0
 10
29.183576
 20
20.612942
 30
0.0
 10
29.019531
 20
20.734512
 30
0.0
 10
28.873476
 20
20.864792
 30
0.0
 10
28.744097
 20
21.005997
 30
0.0
 10
28.630090
 20
21.160346
 30
0.0
 10
28.530133
 20
21.330069
 30
0.0
 10
28.442947
 20
21.517353
 30
0.0
 10
28.367211
 20
21.724429
 30
0.0
 10
28.301617
 20
21.953514
 30
0.0
 10
28.290450
 20
21.995828
 30
0.0
 10
28.278663
 20
22.037345
 30
0.0
 10
28.266430
 20
22.077931
 30
0.0
 10
28.253923
 20
22.117451
 30
0.0
 10
28.241314
 20
22.155771
 30
0.0
 10
28.228776
 20
22.192758
 30
0.0
 10
28.216482
 20
22.228277
 30
0.0
 10
28.204604
 20
22.262194
 30
0.0
 10
28.198908
 20
22.278693
 30
0.0
 10
28.193391
 20
22.295061
 30
0.0
 10
28.187989
 20
22.311210
 30
0.0
 10
28.182641
 20
22.327055
 30
0.0
 10
28.177282
 20
22.342509
 30
0.0
 10
28.171849
 20
22.357487
 30
0.0
 10
28.166281
 20
22.371902
 30
0.0
 10
28.160506
 20
22.385667
 30
0.0
 10
28.155748
 20
22.398042
 30
0.0
 10
28.152237
 20
22.409161
 30
0.0
 10
28.148455
 20
22.420247
 30
0.0
 10
28.142884
 20
22.432521
 30
0.0
 10
28.134003
 20
22.447206
 30
0.0
 10
28.120292
 20
22.465526
 30
0.0
 10
28.100235
 20
22.488702
 30
0.0
 10
28.072312
 20
22.517958
 30
0.0
 10
28.071268
 20
22.519172
 30
0.0
 10
28.068474
 20
22.522355
 30
0.0
 10
28.064316
 20
22.526980
 30
0.0
 10
28.059203
 20
22.532518
 30
0.0
 10
28.053524
 20
22.538442
 30
0.0
 10
28.047677
 20
22.544221
 30
0.0
 10
28.042055
 20
22.549329
 30
0.0
 10
28.037054
 20
22.553237
 30
0.0
 10
28.032411
 20
22.556203
 30
0.0
 10
28.027661
 20
22.558867
 30
0.0
 10
28.022889
 20
22.561272
 30
0.0
 10
28.018184
 20
22.563459
 30
0.0
 10
28.013632
 20
22.565471
 30
0.0
 10
28.009323
 20
22.567351
 30
0.0
 10
28.005341
 20
22.569137
 30
0.0
 10
28.001776
 20
22.570876
 30
0.0
 10
27.995206
 20
22.574134
 30
0.0
 10
27.988839
 20
22.577019
 30
0.0
 10
27.982726
 20
22.579568
 30
0.0
 10
27.976915
 20
22.581817
 30
0.0
 10
27.971454
 20
22.583801
 30
0.0
 10
27.966394
 20
22.585553
 30
0.0
 10
27.961785
 20
22.587114
 30
0.0
 10
27.957676
 20
22.588517
 30
0.0
 10
27.950699
 20
22.591232
 30
0.0
 10
27.944970
 20
22.593978
 30
0.0
 10
27.940232
 20
22.596665
 30
0.0
 10
27.936227
 20
22.599207
 30
0.0
 10
27.932699
 20
22.601516
 30
0.0
 10
27.929389
 20
22.603503
 30
0.0
 10
27.926042
 20
22.605080
 30
0.0
 10
27.922398
 20
22.606159
 30
0.0
 10
27.914778
 20
22.607318
 30
0.0
 10
27.907432
 20
22.607733
 30
0.0
 10
27.900368
 20
22.607611
 30
0.0
 10
27.893589
 20
22.607157
 30
0.0
 10
27.887104
 20
22.606578
 30
0.0
 10
27.880920
 20
22.606082
 30
0.0
 10
27.875044
 20
22.605872
 30
0.0
 10
27.869482
 20
22.606157
 30
0.0
 10
27.858630
 20
22.607368
 30
0.0
 10
27.847623
 20
22.608587
 30
0.0
 10
27.836354
 20
22.609795
 30
0.0
 10
27.824721
 20
22.610972
 30
0.0
 10
27.812619
 20
22.612098
 30
0.0
 10
27.799945
 20
22.613154
 30
0.0
 10
27.786596
 20
22.614119
 30
0.0
 10
27.772465
 20
22.614977
 30
0.0
 10
27.741790
 20
22.616808
 30
0.0
 10
27.707965
 20
22.619024
 30
0.0
 10
27.670961
 20
22.621488
 30
0.0
 10
27.630753
 20
22.624056
 30
0.0
 10
27.587312
 20
22.626593
 30
0.0
 10
27.540612
 20
22.628958
 30
0.0
 10
27.490626
 20
22.631013
 30
0.0
 10
27.437312
 20
22.632611
 30
0.0
 10
27.320507
 20
22.635176
 30
0.0
 10
27.189684
 20
22.637570
 30
0.0
 10
27.044443
 20
22.639825
 30
0.0
 10
26.884383
 20
22.641978
 30
0.0
 10
26.709104
 20
22.644061
 30
0.0
 10
26.518204
 20
22.646110
 30
0.0
 10
26.311282
 20
22.648162
 30
0.0
 10
26.087937
 20
22.650247
 30
0.0
 10
25.591330
 20
22.654301
 30
0.0
 10
25.026887
 20
22.658034
 30
0.0
 10
24.392533
 20
22.661500
 30
0.0
 10
23.686196
 20
22.664753
 30
0.0
 10
22.905801
 20
22.667846
 30
0.0
 10
22.049274
 20
22.670833
 30
0.0
 10
21.114543
 20
22.673768
 30
0.0
 10
20.099534
 20
22.676706
 30
0.0
 10
19.152546
 20
22.678910
 30
0.0
 10
18.205559
 20
22.681114
 30
0.0
 10
17.258571
 20
22.683318
 30
0.0
 10
16.311583
 20
22.685522
 30
0.0
 10
15.364595
 20
22.687727
 30
0.0
 10
14.417607
 20
22.689931
 30
0.0
 10
13.470619
 20
22.692135
 30
0.0
 10
12.523631
 20
22.694339
 30
0.0
 10
12.528031
 20
22.689472
 30
0.0
 10
12.528186
 20
22.690228
 30
0.0
 10
12.524802
 20
22.696068
 30
0.0
 10
12.518588
 20
22.706447
 30
0.0
 10
12.510245
 20
22.720826
 30
0.0
 10
12.500486
 20
22.738661
 30
0.0
 10
12.490013
 20
22.759410
 30
0.0
 10
12.479534
 20
22.782542
 30
0.0
 10
12.468030
 20
22.809303
 30
0.0
 10
12.455845
 20
22.837279
 30
0.0
 10
12.443232
 20
22.866291
 30
0.0
 10
12.430440
 20
22.896162
 30
0.0
 10
12.417722
 20
22.926713
 30
0.0
 10
12.405329
 20
22.957767
 30
0.0
 10
12.393511
 20
22.989144
 30
0.0
 10
12.382520
 20
23.020667
 30
0.0
 10
12.293129
 20
23.256961
 30
0.0
 10
12.188547
 20
23.473262
 30
0.0
 10
12.067880
 20
23.670850
 30
0.0
 10
11.930231
 20
23.851007
 30
0.0
 10
11.774703
 20
24.015015
 30
0.0
 10
11.600402
 20
24.164155
 30
0.0
 10
11.406431
 20
24.299709
 30
0.0
 10
11.191895
 20
24.422958
 30
0.0
 10
11.149109
 20
24.444906
 30
0.0
 10
11.106498
 20
24.465705
 30
0.0
 10
11.063630
 20
24.485156
 30
0.0
 10
11.020072
 20
24.503060
 30
0.0
 10
10.975392
 20
24.519220
 30
0.0
 10
10.929157
 20
24.533438
 30
0.0
 10
10.880937
 20
24.545514
 30
0.0
 10
10.830298
 20
24.555250
 30
0.0
 10
10.777750
 20
24.562917
 30
0.0
 10
10.723317
 20
24.569023
 30
0.0
 10
10.665842
 20
24.573726
 30
0.0
 10
10.604168
 20
24.577182
 30
0.0
 10
10.537135
 20
24.579550
 30
0.0
 10
10.463587
 20
24.580989
 30
0.0
 10
10.382365
 20
24.581655
 30
0.0
 10
10.292312
 20
24.581708
 30
0.0
  0
ENDSEC
  0
SECTION
  2
OBJECTS
  0
DICTIONARY
  5
C
330
0
100
AcDbDictionary
  3
ACAD_GROUP
350
D
  3
ACAD_MLINESTYLE
350
17
  0
DICTIONARY
  5
D
330
C
100
AcDbDictionary
  0
DICTIONARY
  5
1A
330
C
100
AcDbDictionary
  0
DICTIONARY
  5
17
330
C
100
AcDbDictionary
  3
STANDARD
350
18
  0
DICTIONARY
  5
19
330
C
100
AcDbDictionary
  0
ENDSEC
  0
EOF
